<?xml version="1.0" standalone="no"?>
<!DOCTYPE svg PUBLIC "-//W3C//DTD SVG 1.1//EN" "http://www.w3.org/Graphics/SVG/1.1/DTD/svg11.dtd" >
<svg xmlns="http://www.w3.org/2000/svg">
<metadata></metadata>
<defs>
<font id="cassannet_plusregular" horiz-adv-x="1177" >
<font-face units-per-em="2048" ascent="1536" descent="-512" />
<missing-glyph horiz-adv-x="520" />
<glyph horiz-adv-x="0" />
<glyph horiz-adv-x="0" />
<glyph unicode=" "  horiz-adv-x="520" />
<glyph unicode="&#x09;" horiz-adv-x="520" />
<glyph unicode="&#xa0;" horiz-adv-x="520" />
<glyph unicode="!" horiz-adv-x="645" d="M66 221q0 104 73 177t187 73q104 0 178 -74t74 -176t-74 -175t-178 -73q-115 0 -187.5 72t-72.5 176zM82 1434h479l-41 -889h-397z" />
<glyph unicode="&#x22;" horiz-adv-x="919" d="M61 1434h375l-57 -633h-260zM481 1434h375l-57 -633h-260z" />
<glyph unicode="#" horiz-adv-x="1259" d="M47 307v311h154l20 115h-108v311h163l58 314h348l-59 -314h120l58 314h348l-59 -314h122v-311h-180l-20 -115h135v-311h-193l-55 -307h-342l53 307h-123l-55 -307h-342l53 307h-96zM545 618h123l20 115h-123z" />
<glyph unicode="$" d="M158 893q0 157 108 271t264 114v156h265v-156h161v-338h-397q-10 0 -17 -7t-7 -18t6.5 -17.5t17.5 -6.5h131q166 0 278.5 -107.5t112.5 -269.5q0 -130 -86.5 -235t-218.5 -134v-145h-264v137h-305v352h461q10 0 18 8t8 19t-8 19t-18 8h-138q-158 0 -265 99t-107 251z" />
<glyph unicode="%" horiz-adv-x="1673" d="M35 1110q0 144 102 246t244 102q143 0 245.5 -102t102.5 -246q0 -142 -102.5 -244t-245.5 -102q-141 0 -243.5 102t-102.5 244zM221 0l844 1434h399l-841 -1434h-402zM944 317q0 144 102 246.5t244 102.5q143 0 245.5 -102.5t102.5 -246.5q0 -142 -102.5 -244 t-245.5 -102q-141 0 -243.5 102t-102.5 244z" />
<glyph unicode="&#x26;" horiz-adv-x="1148" d="M59 436q0 130 86.5 249t225.5 157l-273 592h887v-367h-258l291 -664h-443l-51 115q-32 0 -55 -22.5t-23 -53.5t22.5 -53t53.5 -22h588v-367h-592q-98 0 -184.5 35t-146 94.5t-94 139t-34.5 167.5z" />
<glyph unicode="'" horiz-adv-x="497" d="M61 1434h375l-57 -633h-260z" />
<glyph unicode="(" horiz-adv-x="770" d="M43 717q0 191 40 427.5t116 422.5h526q-95 -199 -141.5 -431t-46.5 -419t46.5 -421t141.5 -431h-526q-76 189 -116 425.5t-40 426.5z" />
<glyph unicode=")" horiz-adv-x="770" d="M45 -135q95 197 141.5 431t46.5 421t-46.5 419t-141.5 431h526q76 -186 116 -422.5t40 -427.5q0 -190 -40 -426.5t-116 -425.5h-526z" />
<glyph unicode="*" horiz-adv-x="759" d="M18 1024l125 72l-123 69l113 201l133 -74v142h234v-134l118 70l117 -203l-121 -71l121 -78l-117 -195l-118 70v-135h-234v143l-125 -70z" />
<glyph unicode="+" horiz-adv-x="1058" d="M0 553v317h362v379h334v-379h363v-317h-363v-363h-334v363h-362z" />
<glyph unicode="," horiz-adv-x="757" d="M98 -225l60 583h499l-251 -583h-308z" />
<glyph unicode="-" horiz-adv-x="768" d="M51 541v317h664v-317h-664z" />
<glyph unicode="." horiz-adv-x="757" d="M123 221q0 104 73 177t187 73q104 0 178 -74t74 -176t-74 -175t-178 -73q-115 0 -187.5 72t-72.5 176z" />
<glyph unicode="/" horiz-adv-x="1101" d="M-10 -25l733 1680l389 -176l-733 -1682z" />
<glyph unicode="0" horiz-adv-x="1593" d="M35 715q0 155 61 293.5t163.5 236.5t243 155.5t294.5 57.5t294.5 -57.5t243 -155.5t163.5 -236.5t61 -293.5q0 -207 -103.5 -378.5t-278 -268.5t-380.5 -97t-380.5 97t-278 268.5t-103.5 378.5zM553 715q0 -106 69.5 -177t174.5 -71t174 71t69 177t-69 177t-174 71 t-174.5 -71t-69.5 -177z" />
<glyph unicode="1" horiz-adv-x="833" d="M117 995v439h604v-1434h-492v995h-112z" />
<glyph unicode="2" horiz-adv-x="1132" d="M31 0l319 567q-118 62 -184 166.5t-66 243.5q0 198 141.5 339.5t340.5 141.5q131 0 242 -64.5t176 -175t65 -241.5q0 -81 -24 -147.5t-74 -143.5l-185 -278h283v-408h-1034zM496 977q0 -37 24.5 -61.5t61.5 -24.5t61.5 24.5t24.5 61.5t-24.5 61.5t-61.5 24.5t-61.5 -24.5 t-24.5 -61.5z" />
<glyph unicode="3" horiz-adv-x="1118" d="M37 498h395q0 -42 25.5 -67t64.5 -25q35 0 58.5 24.5t23.5 58.5q0 36 -25.5 62.5t-68.5 26.5h-307l200 423h-282v433h977l-287 -637q87 -39 143 -137.5t56 -206.5q0 -129 -59 -238t-173 -176.5t-260 -67.5q-99 0 -184.5 32.5t-152.5 95.5t-105.5 165.5t-38.5 233.5z" />
<glyph unicode="4" horiz-adv-x="1273" d="M-41 170l1131 1315v-940h124v-375h-124v-170h-453v170h-678zM514 459h127v155z" />
<glyph unicode="5" horiz-adv-x="1144" d="M59 227l306 269q25 -43 64 -66.5t79 -23.5q44 0 72 26.5t28 63.5q0 38 -36 67t-97 29q-151 0 -303 -100l47 942h828v-418h-422l-4 -82q123 7 233.5 -51.5t177 -165t66.5 -232.5q0 -103 -40 -197t-110 -164t-172 -111.5t-219 -41.5q-148 0 -277.5 69t-220.5 187z" />
<glyph unicode="6" horiz-adv-x="1064" d="M47 440q0 91 19 161.5t77 158.5l457 696l381 -254l-252 -360q127 -50 207 -159.5t80 -242.5q0 -132 -66.5 -240.5t-177.5 -168.5t-242 -60q-129 0 -239.5 60t-177 168.5t-66.5 240.5zM446 440q0 -37 24.5 -61.5t61.5 -24.5t61.5 24.5t24.5 61.5t-24.5 61.5t-61.5 24.5 t-61.5 -24.5t-24.5 -61.5z" />
<glyph unicode="7" horiz-adv-x="1138" d="M53 1001v433h1100l-655 -1481l-422 192l379 856h-402z" />
<glyph unicode="8" horiz-adv-x="1073" d="M35 449q0 86 34.5 170t86.5 137q-34 52 -56 121t-22 131q0 197 131.5 323.5t327.5 126.5q198 0 328 -126t130 -324q0 -117 -82 -250q56 -56 90.5 -139t34.5 -170q0 -203 -143 -339.5t-358 -136.5q-216 0 -359 136.5t-143 339.5zM453 465q0 -37 24.5 -61.5t61.5 -24.5 t61.5 24.5t24.5 61.5t-24.5 61.5t-61.5 24.5t-61.5 -24.5t-24.5 -61.5zM469 991q0 -29 20.5 -49t49.5 -20t49 20t20 49t-20 49.5t-49 20.5t-49.5 -20.5t-20.5 -49.5z" />
<glyph unicode="9" horiz-adv-x="1064" d="M47 993q0 132 66 240.5t177 168.5t242 60q198 0 341 -135t143 -334q0 -91 -19 -161t-77 -158l-457 -697l-381 254l252 361q-127 51 -207 159.5t-80 241.5zM444 993q0 -37 24.5 -61.5t61.5 -24.5t61.5 24.5t24.5 61.5t-24.5 61.5t-61.5 24.5t-61.5 -24.5t-24.5 -61.5z" />
<glyph unicode=":" horiz-adv-x="757" d="M123 221q0 104 73 177t187 73q104 0 178 -74t74 -176t-74 -175t-178 -73q-115 0 -187.5 72t-72.5 176zM123 860q0 104 73 177t187 73q104 0 178 -74t74 -176t-74 -175t-178 -73q-115 0 -187.5 72t-72.5 176z" />
<glyph unicode=";" horiz-adv-x="757" d="M98 -225l60 583h499l-251 -583h-308zM123 860q0 104 73 177t187 73q104 0 178 -74t74 -176t-74 -175t-178 -73q-115 0 -187.5 72t-72.5 176z" />
<glyph unicode="=" horiz-adv-x="1058" d="M0 354v320h1059v-320h-1059zM0 737v318h1059v-318h-1059z" />
<glyph unicode="?" horiz-adv-x="1050" d="M47 961q0 216 135 356.5t348 140.5q206 0 340 -130t134 -329q0 -117 -43.5 -211t-116.5 -151.5t-164 -88t-191 -30.5v356q55 0 86 27t31 72q0 35 -24.5 60.5t-61.5 25.5t-62.5 -26.5t-25.5 -71.5h-385zM285 221q0 104 73 177t187 73q104 0 178 -74t74 -176t-74 -175 t-178 -73q-115 0 -187.5 72t-72.5 176z" />
<glyph unicode="@" horiz-adv-x="1505" d="M84 641q0 161 62.5 311t169 261.5t256.5 178t317 66.5q114 0 235.5 -37.5t218.5 -99.5v-1104h-483q-171 0 -295.5 126t-124.5 298t123.5 295t296.5 123h191v84q-73 24 -162 24q-139 0 -256 -73t-183.5 -194t-66.5 -259q0 -102 42.5 -198t115 -169t177 -117t222.5 -44 v-291q-164 0 -320.5 66t-274 175.5t-189.5 262t-72 315.5zM745 639q0 -57 43 -95t105 -38h158v272h-158q-62 0 -105 -40t-43 -99z" />
<glyph unicode="A" horiz-adv-x="1421" d="M-25 0l734 1470l737 -1470h-531l-34 88h-342l-35 -88h-529zM621 328h170l-82 211z" />
<glyph unicode="B" horiz-adv-x="1341" d="M113 0v1434h704q121 0 223.5 -57t163 -158.5t60.5 -223.5q0 -72 -35.5 -142.5t-91.5 -102.5q82 -53 126 -131.5t44 -167.5q0 -127 -66 -231t-176 -162t-238 -58h-714zM578 414h137q43 0 73.5 30.5t30.5 73.5t-30.5 74t-73.5 31h-137v-209zM578 874h122q34 0 57 23t23 57 t-23 57t-57 23h-122v-160z" />
<glyph unicode="C" horiz-adv-x="1208" d="M35 715q0 154 60.5 292.5t163 237t243.5 156t295 57.5q187 0 319 -74v-550q-116 139 -291 139q-115 0 -193.5 -74.5t-78.5 -183.5t78.5 -183.5t193.5 -74.5q175 0 291 139v-551q-132 -74 -319 -74q-207 0 -381.5 97.5t-277.5 269t-103 377.5z" />
<glyph unicode="D" horiz-adv-x="1523" d="M113 0v1434h671q144 0 274.5 -57t225 -153.5t150 -229.5t55.5 -279q0 -147 -55 -279t-148.5 -227.5t-224.5 -152t-277 -56.5h-671zM604 449h107q111 0 189.5 77t78.5 189q0 113 -78.5 190.5t-189.5 77.5h-107v-534z" />
<glyph unicode="E" d="M113 0v1434h960v-439h-469v-114h451v-310h-451v-127h475v-444h-966z" />
<glyph unicode="F" horiz-adv-x="1189" d="M113 0v1434h960v-439h-469v-159h451v-330h-451v-506h-491z" />
<glyph unicode="G" horiz-adv-x="1613" d="M35 715q0 207 103 378t277.5 268t381.5 97q404 0 630 -293l-423 -278q-30 39 -81 62.5t-114 23.5q-108 0 -182 -77.5t-74 -184.5q0 -108 77 -189.5t197 -81.5q148 0 209 90h-186v293h700q9 -55 9 -108q0 -151 -59 -288t-159.5 -237.5t-242.5 -159.5t-301 -59 q-207 0 -381.5 97.5t-277.5 269t-103 377.5z" />
<glyph unicode="H" horiz-adv-x="1421" d="M113 0v1434h491v-506h213v506h492v-1434h-492v508h-213v-508h-491z" />
<glyph unicode="I" horiz-adv-x="716" d="M113 0v1434h491v-1434h-491z" />
<glyph unicode="J" horiz-adv-x="1234" d="M70 518h481v-35q0 -17 11.5 -27t25.5 -10q15 0 26 11t11 26v951h497v-959q0 -215 -152.5 -359.5t-375.5 -144.5q-99 0 -192.5 39t-167.5 108t-119 173.5t-45 226.5z" />
<glyph unicode="K" horiz-adv-x="1427" d="M113 0v1434h491v-377l223 377h557l-440 -668l483 -766h-581l-242 422v-422h-491z" />
<glyph unicode="L" horiz-adv-x="1167" d="M113 0v1434h491v-985h494v-449h-985z" />
<glyph unicode="M" horiz-adv-x="1685" d="M41 0l315 1464l488 -733l485 733l316 -1464h-484l-57 340l-260 -383l-256 383l-58 -340h-489z" />
<glyph unicode="N" horiz-adv-x="1464" d="M113 0v1434h397l367 -375v375h475v-1502l-760 766v-698h-479z" />
<glyph unicode="O" horiz-adv-x="1593" d="M35 715q0 155 61 293.5t163.5 236.5t243 155.5t294.5 57.5t294.5 -57.5t243 -155.5t163.5 -236.5t61 -293.5q0 -207 -103.5 -378.5t-278 -268.5t-380.5 -97t-380.5 97t-278 268.5t-103.5 378.5zM553 715q0 -106 69.5 -177t174.5 -71t174 71t69 177t-69 177t-174 71 t-174.5 -71t-69.5 -177z" />
<glyph unicode="P" horiz-adv-x="1323" d="M113 0v1434h659q144 0 263 -70t186 -189t67 -260t-67 -263.5t-186.5 -196.5t-262.5 -74h-168v-381h-491zM604 803h78q43 0 73.5 30.5t30.5 73.5t-30.5 74t-73.5 31h-78v-209z" />
<glyph unicode="Q" horiz-adv-x="1593" d="M35 715q0 155 61 293.5t163.5 236.5t243 155.5t294.5 57.5t294.5 -57.5t243 -155.5t163.5 -236.5t61 -293.5q0 -247 -145 -439.5t-374 -265.5v-319h-491v319q-227 75 -370.5 267t-143.5 438zM553 715q0 -106 69.5 -177t174.5 -71t174 71t69 177t-69 177t-174 71 t-174.5 -71t-69.5 -177z" />
<glyph unicode="R" horiz-adv-x="1347" d="M113 0v1434h579q169 0 305 -71t214.5 -201.5t78.5 -297.5q0 -119 -62.5 -217.5t-127.5 -134.5q176 -105 176 -338v-174h-479v152q0 71 -47.5 111t-110.5 40h-35v-303h-491zM604 735h58q56 0 92.5 34.5t36.5 88.5t-36.5 89.5t-92.5 35.5h-58v-248z" />
<glyph unicode="S" d="M35 950q0 129 61 240t170 177.5t240 66.5h481v-437h-450q-12 0 -19.5 -6.5t-7.5 -17.5t7.5 -18t19.5 -7h116q135 0 247.5 -61.5t177.5 -170.5t65 -243q0 -124 -65 -233t-178.5 -174.5t-246.5 -65.5h-555v455h531q13 0 20.5 7.5t7.5 18.5t-7.5 19t-20.5 8h-123 q-199 0 -335 125.5t-136 316.5z" />
<glyph unicode="T" horiz-adv-x="1187" d="M57 985v449h1071v-449h-288v-985h-492v985h-291z" />
<glyph unicode="U" horiz-adv-x="1306" d="M102 504v930h492v-924q0 -25 17 -42t42 -17t42.5 17t17.5 42v924h491v-930q0 -160 -73.5 -282.5t-197.5 -186.5t-278 -64q-153 0 -278 64t-200 186.5t-75 282.5z" />
<glyph unicode="V" horiz-adv-x="1398" d="M-6 1434h518l186 -461l191 461h518l-709 -1477z" />
<glyph unicode="W" horiz-adv-x="1841" d="M-8 1434h370l336 -672l21 39l-316 633h463l246 -488l209 488h528l-735 -1479l-194 379l-191 -377z" />
<glyph unicode="X" horiz-adv-x="1339" d="M-16 0l395 760l-350 674h534l107 -295l106 295h531l-349 -674l396 -760h-533l-151 365l-154 -365h-532z" />
<glyph unicode="Y" horiz-adv-x="1452" d="M-8 1434h557l174 -369l184 369h551l-487 -844v-590h-490v590z" />
<glyph unicode="Z" horiz-adv-x="1333" d="M63 0l443 983h-377v451h1147l-440 -985h409v-449h-1182z" />
<glyph unicode="[" horiz-adv-x="774" d="M43 -135v1702h621v-326h-152v-1051h152v-325h-621z" />
<glyph unicode="\" horiz-adv-x="1103" d="M-10 1479l389 176l733 -1680l-389 -178z" />
<glyph unicode="]" horiz-adv-x="774" d="M111 -135v325h151v1051h-151v326h620v-1702h-620z" />
<glyph unicode="_" horiz-adv-x="1323" d="M43 -8h1235v-369h-1235v369z" />
<glyph unicode="`" horiz-adv-x="727" d="M53 1389h428l193 -345h-281z" />
<glyph unicode="a" horiz-adv-x="1421" d="M-25 0l734 1470l737 -1470h-531l-34 88h-342l-35 -88h-529zM621 328h170l-82 211z" />
<glyph unicode="b" horiz-adv-x="1341" d="M113 0v1434h704q121 0 223.5 -57t163 -158.5t60.5 -223.5q0 -72 -35.5 -142.5t-91.5 -102.5q82 -53 126 -131.5t44 -167.5q0 -127 -66 -231t-176 -162t-238 -58h-714zM578 414h137q43 0 73.5 30.5t30.5 73.5t-30.5 74t-73.5 31h-137v-209zM578 874h122q34 0 57 23t23 57 t-23 57t-57 23h-122v-160z" />
<glyph unicode="c" horiz-adv-x="1208" d="M35 715q0 154 60.5 292.5t163 237t243.5 156t295 57.5q187 0 319 -74v-550q-116 139 -291 139q-115 0 -193.5 -74.5t-78.5 -183.5t78.5 -183.5t193.5 -74.5q175 0 291 139v-551q-132 -74 -319 -74q-207 0 -381.5 97.5t-277.5 269t-103 377.5z" />
<glyph unicode="d" horiz-adv-x="1523" d="M113 0v1434h671q144 0 274.5 -57t225 -153.5t150 -229.5t55.5 -279q0 -147 -55 -279t-148.5 -227.5t-224.5 -152t-277 -56.5h-671zM604 449h107q111 0 189.5 77t78.5 189q0 113 -78.5 190.5t-189.5 77.5h-107v-534z" />
<glyph unicode="e" d="M113 0v1434h960v-439h-469v-114h451v-310h-451v-127h475v-444h-966z" />
<glyph unicode="f" horiz-adv-x="1189" d="M113 0v1434h960v-439h-469v-159h451v-330h-451v-506h-491z" />
<glyph unicode="g" horiz-adv-x="1613" d="M35 715q0 207 103 378t277.5 268t381.5 97q404 0 630 -293l-423 -278q-30 39 -81 62.5t-114 23.5q-108 0 -182 -77.5t-74 -184.5q0 -108 77 -189.5t197 -81.5q148 0 209 90h-186v293h700q9 -55 9 -108q0 -151 -59 -288t-159.5 -237.5t-242.5 -159.5t-301 -59 q-207 0 -381.5 97.5t-277.5 269t-103 377.5z" />
<glyph unicode="h" horiz-adv-x="1421" d="M113 0v1434h491v-506h213v506h492v-1434h-492v508h-213v-508h-491z" />
<glyph unicode="i" horiz-adv-x="716" d="M113 0v1434h491v-1434h-491z" />
<glyph unicode="j" horiz-adv-x="1234" d="M70 518h481v-35q0 -17 11.5 -27t25.5 -10q15 0 26 11t11 26v951h497v-959q0 -215 -152.5 -359.5t-375.5 -144.5q-99 0 -192.5 39t-167.5 108t-119 173.5t-45 226.5z" />
<glyph unicode="k" horiz-adv-x="1427" d="M113 0v1434h491v-377l223 377h557l-440 -668l483 -766h-581l-242 422v-422h-491z" />
<glyph unicode="l" horiz-adv-x="1167" d="M113 0v1434h491v-985h494v-449h-985z" />
<glyph unicode="m" horiz-adv-x="1685" d="M41 0l315 1464l488 -733l485 733l316 -1464h-484l-57 340l-260 -383l-256 383l-58 -340h-489z" />
<glyph unicode="n" horiz-adv-x="1464" d="M113 0v1434h397l367 -375v375h475v-1502l-760 766v-698h-479z" />
<glyph unicode="o" horiz-adv-x="1593" d="M35 715q0 155 61 293.5t163.5 236.5t243 155.5t294.5 57.5t294.5 -57.5t243 -155.5t163.5 -236.5t61 -293.5q0 -207 -103.5 -378.5t-278 -268.5t-380.5 -97t-380.5 97t-278 268.5t-103.5 378.5zM553 715q0 -106 69.5 -177t174.5 -71t174 71t69 177t-69 177t-174 71 t-174.5 -71t-69.5 -177z" />
<glyph unicode="p" horiz-adv-x="1323" d="M113 0v1434h659q144 0 263 -70t186 -189t67 -260t-67 -263.5t-186.5 -196.5t-262.5 -74h-168v-381h-491zM604 803h78q43 0 73.5 30.5t30.5 73.5t-30.5 74t-73.5 31h-78v-209z" />
<glyph unicode="q" horiz-adv-x="1593" d="M35 715q0 155 61 293.5t163.5 236.5t243 155.5t294.5 57.5t294.5 -57.5t243 -155.5t163.5 -236.5t61 -293.5q0 -247 -145 -439.5t-374 -265.5v-319h-491v319q-227 75 -370.5 267t-143.5 438zM553 715q0 -106 69.5 -177t174.5 -71t174 71t69 177t-69 177t-174 71 t-174.5 -71t-69.5 -177z" />
<glyph unicode="r" horiz-adv-x="1347" d="M113 0v1434h579q169 0 305 -71t214.5 -201.5t78.5 -297.5q0 -119 -62.5 -217.5t-127.5 -134.5q176 -105 176 -338v-174h-479v152q0 71 -47.5 111t-110.5 40h-35v-303h-491zM604 735h58q56 0 92.5 34.5t36.5 88.5t-36.5 89.5t-92.5 35.5h-58v-248z" />
<glyph unicode="s" d="M35 950q0 129 61 240t170 177.5t240 66.5h481v-437h-450q-12 0 -19.5 -6.5t-7.5 -17.5t7.5 -18t19.5 -7h116q135 0 247.5 -61.5t177.5 -170.5t65 -243q0 -124 -65 -233t-178.5 -174.5t-246.5 -65.5h-555v455h531q13 0 20.5 7.5t7.5 18.5t-7.5 19t-20.5 8h-123 q-199 0 -335 125.5t-136 316.5z" />
<glyph unicode="t" horiz-adv-x="1187" d="M57 985v449h1071v-449h-288v-985h-492v985h-291z" />
<glyph unicode="u" horiz-adv-x="1306" d="M102 504v930h492v-924q0 -25 17 -42t42 -17t42.5 17t17.5 42v924h491v-930q0 -160 -73.5 -282.5t-197.5 -186.5t-278 -64q-153 0 -278 64t-200 186.5t-75 282.5z" />
<glyph unicode="v" horiz-adv-x="1398" d="M-6 1434h518l186 -461l191 461h518l-709 -1477z" />
<glyph unicode="w" horiz-adv-x="1841" d="M-8 1434h370l336 -672l21 39l-316 633h463l246 -488l209 488h528l-735 -1479l-194 379l-191 -377z" />
<glyph unicode="x" horiz-adv-x="1341" d="M-16 0l395 760l-350 674h534l107 -295l106 295h531l-349 -674l396 -760h-533l-151 365l-154 -365h-532z" />
<glyph unicode="y" horiz-adv-x="1452" d="M-8 1434h557l174 -369l184 369h551l-487 -844v-590h-490v590z" />
<glyph unicode="z" horiz-adv-x="1333" d="M63 0l443 983h-377v451h1147l-440 -985h409v-449h-1182z" />
<glyph unicode="{" horiz-adv-x="825" d="M45 553v326h25q58 0 82 23t24 71v364q0 97 65.5 163.5t161.5 66.5h365v-326h-92q-13 0 -22 -8.5t-9 -20.5v-272q0 -170 -137 -223q137 -56 137 -225v-271q0 -12 9 -21.5t22 -9.5h92v-325h-365q-97 0 -162 65t-65 160v367q0 48 -24 72t-82 24h-25z" />
<glyph unicode="|" horiz-adv-x="716" d="M113 -254v1942h491v-1942h-491z" />
<glyph unicode="}" horiz-adv-x="827" d="M59 -135v325h93q13 0 21.5 9.5t8.5 21.5v271q0 169 137 225q-137 53 -137 223v272q0 12 -8.5 20.5t-21.5 8.5h-93v326h365q96 0 161.5 -66.5t65.5 -163.5v-364q0 -48 24.5 -71t82.5 -23h24v-326h-24q-58 0 -82.5 -24t-24.5 -72v-367q0 -95 -65 -160t-162 -65h-365z" />
<glyph unicode="&#xa1;" horiz-adv-x="643" d="M66 1212q0 104 72.5 176t187.5 72q104 0 178 -73t74 -175t-74 -175.5t-178 -73.5q-114 0 -187 72.5t-73 176.5zM82 0l41 889h397l41 -889h-479z" />
<glyph unicode="&#xa2;" horiz-adv-x="903" d="M84 723q0 160 96 289t246 186v236h297v-220q44 -13 88 -40v-410q-84 84 -186 84q-62 0 -104 -35.5t-42 -89.5t42.5 -91.5t103.5 -37.5q103 0 186 53v-377q-32 -28 -88 -43v-227h-297v244q-150 52 -246 184t-96 295z" />
<glyph unicode="&#xa3;" horiz-adv-x="1234" d="M78 0v385h106v152h-75v313h75v164q0 184 137 315t341 131q99 0 179 -27t131.5 -72t86 -106t49 -125t14.5 -133v-36h-411v34q0 20 -15 34.5t-37 14.5q-20 0 -35.5 -14.5t-15.5 -34.5v-145h262v-313h-262v-152h547v-385h-1077z" />
<glyph unicode="&#xa5;" horiz-adv-x="1452" d="M-8 1434h557l174 -369l184 369h551l-440 -760h237v-320h-284v-354h-490v354h-284v320h235z" />
<glyph unicode="&#xa7;" horiz-adv-x="1198" d="M45 461q0 137 70 252q-70 106 -70 237q0 129 61 240t170 177.5t240 66.5h481v-437h-450q-12 0 -19.5 -6.5t-7.5 -17.5t7.5 -18t19.5 -7h117q135 0 247 -61.5t177 -170.5t65 -243q0 -125 -72 -237q72 -115 72 -252q0 -125 -65 -233.5t-178 -174t-246 -65.5h-555v454h530 q13 0 21 8t8 19t-8 18.5t-21 7.5h-123q-199 0 -335 126t-136 317zM467 481q0 -20 13.5 -33.5t33.5 -13.5h160q20 0 33.5 13.5t13.5 33.5t-13.5 33.5t-33.5 13.5h-160q-20 0 -33.5 -13.5t-13.5 -33.5z" />
<glyph unicode="&#xa8;" horiz-adv-x="985" d="M78 1194q0 78 55.5 133t134.5 55q77 0 133 -55t56 -133q0 -79 -56 -136t-133 -57q-79 0 -134.5 56.5t-55.5 136.5zM526 1194q0 78 56 133t135 55q77 0 133.5 -55.5t56.5 -132.5q0 -79 -56.5 -136t-133.5 -57q-79 0 -135 56.5t-56 136.5z" />
<glyph unicode="&#xa9;" horiz-adv-x="1613" d="M70 715q0 153 58 291t157 237t236 157t290 58t290 -58t236 -157t157 -237t58 -291t-58 -291t-157 -237.5t-236 -157.5t-290 -58t-290 58t-236 157.5t-157 237.5t-58 291zM313 715q0 -139 67 -254t181.5 -180.5t249.5 -65.5t249.5 65.5t181.5 180.5t67 254t-67 254 t-181.5 180t-249.5 65t-249.5 -65t-181.5 -180t-67 -254zM367 719q0 121 63 224t167 161.5t224 58.5q112 0 199 -49v-362q-59 42 -99 57.5t-90 15.5q-46 0 -79 -30.5t-33 -75.5t31.5 -76t80.5 -31q93 0 189 76v-362q-110 -50 -199 -50q-119 0 -224 59.5t-167.5 162.5 t-62.5 221z" />
<glyph unicode="&#xaa;" horiz-adv-x="688" d="M27 887l317 590l318 -590h-230l-14 28h-146l-16 -28h-229zM303 999h82l-41 80z" />
<glyph unicode="&#xab;" horiz-adv-x="1189" d="M37 719l239 430h408l-233 -430l233 -432h-408zM512 719l233 430h408l-233 -430l233 -432h-408z" />
<glyph unicode="&#xad;" horiz-adv-x="768" d="M51 541v317h664v-317h-664z" />
<glyph unicode="&#xae;" horiz-adv-x="692" d="M55 1167q0 121 84.5 206t206.5 85t206.5 -85t84.5 -206t-84.5 -205.5t-206.5 -84.5t-206.5 84.5t-84.5 205.5zM125 1167q0 -95 62.5 -159t158.5 -64t158.5 64t62.5 159t-62.5 159.5t-158.5 64.5t-158.5 -64.5t-62.5 -159.5zM227 1018v305h125q57 0 94 -32.5t37 -84.5 q0 -47 -39 -73q39 -23 39 -76v-39h-98v39q0 15 -10 27t-25 12h-28v-78h-95zM322 1169h32q12 0 21.5 9.5t9.5 21.5t-9.5 21.5t-21.5 9.5h-32v-62z" />
<glyph unicode="&#xaf;" horiz-adv-x="825" d="M100 1030v279h623v-279h-623z" />
<glyph unicode="&#xb0;" horiz-adv-x="673" d="M57 1182q0 116 81 196t198 80q116 0 196 -80t80 -196t-80.5 -196.5t-195.5 -80.5q-117 0 -198 80.5t-81 196.5zM295 1182q0 -19 11 -30t30 -11q17 0 28 11t11 30q0 17 -11.5 28t-27.5 11q-19 0 -30 -11t-11 -28z" />
<glyph unicode="&#xb4;" horiz-adv-x="727" d="M53 1044l193 345h428l-340 -345h-281z" />
<glyph unicode="&#xb6;" horiz-adv-x="1265" d="M47 967q0 126 64 233.5t173.5 170.5t237.5 63h662v-355h-92v-1339h-304v1528h-32v-1528h-350v766q-154 39 -256.5 169.5t-102.5 291.5z" />
<glyph unicode="&#xb7;" horiz-adv-x="643" d="M66 543q0 104 73 177t187 73q104 0 178 -74t74 -176t-74 -175t-178 -73q-115 0 -187.5 72t-72.5 176z" />
<glyph unicode="&#xb8;" horiz-adv-x="677" d="M86 -391l193 446h313l-189 -446h-317z" />
<glyph unicode="&#xba;" horiz-adv-x="665" d="M39 1167q0 122 85.5 207.5t209.5 85.5q123 0 208 -85.5t85 -207.5q0 -120 -85 -205t-208 -85q-124 0 -209.5 84.5t-85.5 205.5zM291 1167q0 -19 12 -31t31 -12q17 0 29 12t12 31q0 17 -12.5 29t-28.5 12q-19 0 -31 -12t-12 -29z" />
<glyph unicode="&#xbb;" horiz-adv-x="1189" d="M37 287l233 432l-233 430h407l234 -430l-234 -432h-407zM506 287l233 432l-233 430h407l240 -430l-240 -432h-407z" />
<glyph unicode="&#xbf;" horiz-adv-x="1050" d="M47 432q0 117 43 211t116 151.5t164 88t191 30.5v-356q-55 0 -86 -26.5t-31 -71.5q0 -35 24.5 -60.5t61.5 -25.5t62.5 26.5t25.5 71.5h386q0 -216 -135.5 -357t-348.5 -141q-206 0 -339.5 130t-133.5 329zM254 1210q0 102 74 175t178 73q115 0 187.5 -72t72.5 -176 t-73 -176.5t-187 -72.5q-104 0 -178 73.5t-74 175.5z" />
<glyph unicode="&#xc0;" horiz-adv-x="1421" d="M-25 0l734 1470l737 -1470h-531l-34 88h-342l-35 -88h-529zM246 1880h428l192 -344h-280zM621 328h170l-82 211z" />
<glyph unicode="&#xc1;" horiz-adv-x="1421" d="M-25 0l734 1470l737 -1470h-531l-34 88h-342l-35 -88h-529zM520 1536l193 344h428l-340 -344h-281zM621 328h170l-82 211z" />
<glyph unicode="&#xc2;" horiz-adv-x="1421" d="M-25 0l734 1470l737 -1470h-531l-34 88h-342l-35 -88h-529zM436 1536v297l275 125l274 -125v-297l-276 119zM621 328h170l-82 211z" />
<glyph unicode="&#xc3;" horiz-adv-x="1421" d="M-25 0l734 1470l737 -1470h-531l-34 88h-342l-35 -88h-529zM328 1655q28 74 77.5 123t98 66.5t98.5 17.5q40 0 94.5 -16.5t83.5 -16.5q57 0 84 55l230 -141q-28 -74 -78 -123t-98.5 -66.5t-98.5 -17.5q-35 0 -93 16.5t-85 16.5q-57 0 -84 -56zM621 328h170l-82 211z" />
<glyph unicode="&#xc4;" horiz-adv-x="1421" d="M-25 0l734 1470l737 -1470h-531l-34 88h-342l-35 -88h-529zM295 1729q0 78 55.5 133t134.5 55q77 0 133 -55t56 -133q0 -79 -56 -136t-133 -57q-79 0 -134.5 56.5t-55.5 136.5zM621 328h170l-82 211zM743 1729q0 78 56 133t135 55q77 0 133.5 -55.5t56.5 -132.5 q0 -79 -56.5 -136t-133.5 -57q-79 0 -135 56.5t-56 136.5z" />
<glyph unicode="&#xc5;" horiz-adv-x="1421" d="M-25 0l734 1470l737 -1470h-531l-34 88h-342l-35 -88h-529zM477 1765q0 97 69 164.5t167 67.5q97 0 164 -67.5t67 -164.5q0 -95 -67 -162t-164 -67q-98 0 -167 67t-69 162zM621 328h170l-82 211zM651 1765q0 -23 17.5 -40t44.5 -17q25 0 42 17t17 40q0 24 -17 42t-42 18 q-27 0 -44.5 -18t-17.5 -42z" />
<glyph unicode="&#xc6;" horiz-adv-x="1779" d="M-25 0l734 1434h966v-439h-714l59 -114h637v-310h-506l66 -127h464v-444h-766l-34 88h-342l-35 -88h-529zM621 328h170l-82 211z" />
<glyph unicode="&#xc7;" horiz-adv-x="1208" d="M35 715q0 154 60.5 292.5t163 237t243.5 156t295 57.5q187 0 319 -74v-550q-116 139 -291 139q-115 0 -193.5 -74.5t-78.5 -183.5t78.5 -183.5t193.5 -74.5q175 0 291 139v-551q-104 -59 -244 -70l-153 -366h-318l170 395q-236 70 -386 264.5t-150 446.5z" />
<glyph unicode="&#xc8;" d="M113 0v1434h960v-439h-469v-114h451v-310h-451v-127h475v-444h-966zM211 1880h428l192 -344h-280z" />
<glyph unicode="&#xc9;" d="M113 0v1434h960v-439h-469v-114h451v-310h-451v-127h475v-444h-966zM354 1536l193 344h428l-340 -344h-281z" />
<glyph unicode="&#xca;" d="M113 0v1434h960v-439h-469v-114h451v-310h-451v-127h475v-444h-966zM313 1536v297l275 125l274 -125v-297l-276 119z" />
<glyph unicode="&#xcb;" d="M113 0v1434h960v-439h-469v-114h451v-310h-451v-127h475v-444h-966zM174 1729q0 78 56 133t135 55q77 0 132.5 -55t55.5 -133q0 -79 -55.5 -136t-132.5 -57q-79 0 -135 56.5t-56 136.5zM623 1729q0 78 55.5 133t134.5 55q77 0 134 -55.5t57 -132.5q0 -79 -57 -136 t-134 -57q-79 0 -134.5 56.5t-55.5 136.5z" />
<glyph unicode="&#xcc;" horiz-adv-x="716" d="M-2 1880h428l192 -344h-280zM113 0v1434h491v-1434h-491z" />
<glyph unicode="&#xcd;" horiz-adv-x="716" d="M96 1536l193 344h428l-340 -344h-281zM113 0v1434h491v-1434h-491z" />
<glyph unicode="&#xce;" horiz-adv-x="716" d="M84 1536v297l274 125l275 -125v-297l-277 119zM113 0v1434h491v-1434h-491z" />
<glyph unicode="&#xcf;" horiz-adv-x="716" d="M-55 1729q0 78 55.5 133t134.5 55q77 0 133 -55t56 -133q0 -79 -56 -136t-133 -57q-79 0 -134.5 56.5t-55.5 136.5zM113 0v1434h491v-1434h-491zM393 1729q0 78 56 133t135 55q77 0 133.5 -55.5t56.5 -132.5q0 -79 -56.5 -136t-133.5 -57q-79 0 -135 56.5t-56 136.5z" />
<glyph unicode="&#xd0;" horiz-adv-x="1603" d="M80 578v278h113v578h671q144 0 274.5 -57t225 -153.5t150 -229.5t55.5 -279q0 -147 -55 -279t-148.5 -227.5t-224.5 -152t-277 -56.5h-671v578h-113zM684 449h107q111 0 189.5 77t78.5 189q0 113 -78.5 190.5t-189.5 77.5h-107v-127h150v-278h-150v-129z" />
<glyph unicode="&#xd1;" horiz-adv-x="1464" d="M113 0v1434h397l367 -375v375h475v-1502l-760 766v-698h-479zM348 1655q28 74 78 123t98.5 66.5t98.5 17.5q40 0 94.5 -16.5t83.5 -16.5q57 0 84 55l229 -141q-28 -74 -77.5 -123t-98 -66.5t-98.5 -17.5q-35 0 -93 16.5t-85 16.5q-57 0 -84 -56z" />
<glyph unicode="&#xd2;" horiz-adv-x="1593" d="M35 715q0 155 61 293.5t163.5 236.5t243 155.5t294.5 57.5t294.5 -57.5t243 -155.5t163.5 -236.5t61 -293.5q0 -207 -103.5 -378.5t-278 -268.5t-380.5 -97t-380.5 97t-278 268.5t-103.5 378.5zM360 1880h428l193 -344h-281zM553 715q0 -106 69.5 -177t174.5 -71t174 71 t69 177t-69 177t-174 71t-174.5 -71t-69.5 -177z" />
<glyph unicode="&#xd3;" horiz-adv-x="1593" d="M35 715q0 155 61 293.5t163.5 236.5t243 155.5t294.5 57.5t294.5 -57.5t243 -155.5t163.5 -236.5t61 -293.5q0 -207 -103.5 -378.5t-278 -268.5t-380.5 -97t-380.5 97t-278 268.5t-103.5 378.5zM553 715q0 -106 69.5 -177t174.5 -71t174 71t69 177t-69 177t-174 71 t-174.5 -71t-69.5 -177zM584 1536l192 344h428l-340 -344h-280z" />
<glyph unicode="&#xd4;" horiz-adv-x="1593" d="M35 715q0 155 61 293.5t163.5 236.5t243 155.5t294.5 57.5t294.5 -57.5t243 -155.5t163.5 -236.5t61 -293.5q0 -207 -103.5 -378.5t-278 -268.5t-380.5 -97t-380.5 97t-278 268.5t-103.5 378.5zM522 1536v297l275 125l274 -125v-297l-276 119zM553 715q0 -106 69.5 -177 t174.5 -71t174 71t69 177t-69 177t-174 71t-174.5 -71t-69.5 -177z" />
<glyph unicode="&#xd5;" horiz-adv-x="1593" d="M35 715q0 155 61 293.5t163.5 236.5t243 155.5t294.5 57.5t294.5 -57.5t243 -155.5t163.5 -236.5t61 -293.5q0 -207 -103.5 -378.5t-278 -268.5t-380.5 -97t-380.5 97t-278 268.5t-103.5 378.5zM414 1655q28 74 77.5 123t98 66.5t98.5 17.5q40 0 94.5 -16.5t83.5 -16.5 q57 0 84 55l230 -141q-28 -74 -78 -123t-98.5 -66.5t-98.5 -17.5q-35 0 -93 16.5t-85 16.5q-57 0 -84 -56zM553 715q0 -106 69.5 -177t174.5 -71t174 71t69 177t-69 177t-174 71t-174.5 -71t-69.5 -177z" />
<glyph unicode="&#xd6;" horiz-adv-x="1593" d="M35 715q0 155 61 293.5t163.5 236.5t243 155.5t294.5 57.5t294.5 -57.5t243 -155.5t163.5 -236.5t61 -293.5q0 -207 -103.5 -378.5t-278 -268.5t-380.5 -97t-380.5 97t-278 268.5t-103.5 378.5zM389 1729q0 78 56 133t135 55q77 0 132.5 -55t55.5 -133q0 -79 -55.5 -136 t-132.5 -57q-79 0 -135 56.5t-56 136.5zM553 715q0 -106 69.5 -177t174.5 -71t174 71t69 177t-69 177t-174 71t-174.5 -71t-69.5 -177zM838 1729q0 78 55.5 133t134.5 55q77 0 134 -55.5t57 -132.5q0 -79 -57 -136t-134 -57q-79 0 -134.5 56.5t-55.5 136.5z" />
<glyph unicode="&#xd7;" horiz-adv-x="1122" d="M68 973l235 235l268 -268l256 256l226 -223l-256 -258l256 -256l-236 -236l-258 256l-256 -256l-223 226l256 256z" />
<glyph unicode="&#xd8;" horiz-adv-x="1593" d="M35 715q0 155 61 293.5t163.5 236.5t243 155.5t294.5 57.5q248 0 450 -143l115 112l160 -159l-111 -111q148 -195 148 -442q0 -207 -103.5 -378.5t-278 -268.5t-380.5 -97q-251 0 -451 142l-108 -107l-160 160l104 104q-147 197 -147 445zM553 715q0 -41 8 -72l313 307 q-41 13 -77 13q-105 0 -174.5 -71t-69.5 -177zM719 477q38 -10 78 -10q105 0 174 71t69 177q0 31 -10 69z" />
<glyph unicode="&#xd9;" horiz-adv-x="1306" d="M102 504v930h492v-924q0 -25 17 -42t42 -17t42.5 17t17.5 42v924h491v-930q0 -160 -73.5 -282.5t-197.5 -186.5t-278 -64q-153 0 -278 64t-200 186.5t-75 282.5zM219 1880h428l193 -344h-281z" />
<glyph unicode="&#xda;" horiz-adv-x="1306" d="M102 504v930h492v-924q0 -25 17 -42t42 -17t42.5 17t17.5 42v924h491v-930q0 -160 -73.5 -282.5t-197.5 -186.5t-278 -64q-153 0 -278 64t-200 186.5t-75 282.5zM432 1536l193 344h428l-340 -344h-281z" />
<glyph unicode="&#xdb;" horiz-adv-x="1306" d="M102 504v930h492v-924q0 -25 17 -42t42 -17t42.5 17t17.5 42v924h491v-930q0 -160 -73.5 -282.5t-197.5 -186.5t-278 -64q-153 0 -278 64t-200 186.5t-75 282.5zM383 1536v297l274 125l275 -125v-297l-277 119z" />
<glyph unicode="&#xdc;" horiz-adv-x="1306" d="M102 504v930h492v-924q0 -25 17 -42t42 -17t42.5 17t17.5 42v924h491v-930q0 -160 -73.5 -282.5t-197.5 -186.5t-278 -64q-153 0 -278 64t-200 186.5t-75 282.5zM238 1729q0 78 55.5 133t134.5 55q77 0 132.5 -55t55.5 -133q0 -79 -55.5 -136t-132.5 -57 q-79 0 -134.5 56.5t-55.5 136.5zM686 1729q0 78 56 133t135 55q77 0 133.5 -55.5t56.5 -132.5q0 -79 -56.5 -136t-133.5 -57q-79 0 -135 56.5t-56 136.5z" />
<glyph unicode="&#xdd;" horiz-adv-x="1452" d="M-8 1434h557l174 -369l184 369h551l-487 -844v-590h-490v590zM567 1536l193 344h428l-340 -344h-281z" />
<glyph unicode="&#xde;" horiz-adv-x="1323" d="M113 0v1434h491v-140h168q108 0 204 -41t164 -111t108 -165.5t40 -200.5q0 -141 -67 -263.5t-186.5 -196.5t-262.5 -74h-168v-242h-491zM604 664h78q43 0 73.5 30.5t30.5 73.5t-30.5 73.5t-73.5 30.5h-78v-208z" />
<glyph unicode="&#xdf;" horiz-adv-x="2355" d="M35 950q0 129 61 240t170 177.5t240 66.5h481v-437h-450q-12 0 -19.5 -6.5t-7.5 -17.5t7.5 -18t19.5 -7h116q135 0 247.5 -61.5t177.5 -170.5t65 -243q0 -124 -65 -233t-178.5 -174.5t-246.5 -65.5h-555v455h531q13 0 20.5 7.5t7.5 18.5t-7.5 19t-20.5 8h-123 q-199 0 -335 125.5t-136 316.5zM1212 950q0 129 61 240t170 177.5t240 66.5h482v-437h-451q-26 0 -26 -24q0 -11 7 -18t19 -7h117q135 0 247 -61.5t177 -170.5t65 -243q0 -125 -65 -233.5t-178 -174t-246 -65.5h-555v455h530q13 0 21 7.5t8 18.5t-8 19t-21 8h-123 q-199 0 -335 125.5t-136 316.5z" />
<glyph unicode="&#xe0;" horiz-adv-x="1421" d="M-25 0l734 1470l737 -1470h-531l-34 88h-342l-35 -88h-529zM246 1880h428l192 -344h-280zM621 328h170l-82 211z" />
<glyph unicode="&#xe1;" horiz-adv-x="1421" d="M-25 0l734 1470l737 -1470h-531l-34 88h-342l-35 -88h-529zM520 1536l193 344h428l-340 -344h-281zM621 328h170l-82 211z" />
<glyph unicode="&#xe2;" horiz-adv-x="1421" d="M-25 0l734 1470l737 -1470h-531l-34 88h-342l-35 -88h-529zM436 1536v297l275 125l274 -125v-297l-276 119zM621 328h170l-82 211z" />
<glyph unicode="&#xe3;" horiz-adv-x="1421" d="M-25 0l734 1470l737 -1470h-531l-34 88h-342l-35 -88h-529zM328 1655q28 74 77.5 123t98 66.5t98.5 17.5q40 0 94.5 -16.5t83.5 -16.5q57 0 84 55l230 -141q-28 -74 -78 -123t-98.5 -66.5t-98.5 -17.5q-35 0 -93 16.5t-85 16.5q-57 0 -84 -56zM621 328h170l-82 211z" />
<glyph unicode="&#xe4;" horiz-adv-x="1421" d="M-25 0l734 1470l737 -1470h-531l-34 88h-342l-35 -88h-529zM295 1729q0 78 55.5 133t134.5 55q77 0 133 -55t56 -133q0 -79 -56 -136t-133 -57q-79 0 -134.5 56.5t-55.5 136.5zM621 328h170l-82 211zM743 1729q0 78 56 133t135 55q77 0 133.5 -55.5t56.5 -132.5 q0 -79 -56.5 -136t-133.5 -57q-79 0 -135 56.5t-56 136.5z" />
<glyph unicode="&#xe5;" horiz-adv-x="1421" d="M-25 0l734 1470l737 -1470h-531l-34 88h-342l-35 -88h-529zM477 1765q0 97 69 164.5t167 67.5q97 0 164 -67.5t67 -164.5q0 -95 -67 -162t-164 -67q-98 0 -167 67t-69 162zM621 328h170l-82 211zM651 1765q0 -23 17.5 -40t44.5 -17q25 0 42 17t17 40q0 24 -17 42t-42 18 q-27 0 -44.5 -18t-17.5 -42z" />
<glyph unicode="&#xe6;" horiz-adv-x="1779" d="M-25 0l734 1434h966v-439h-714l59 -114h637v-310h-506l66 -127h464v-444h-766l-34 88h-342l-35 -88h-529zM621 328h170l-82 211z" />
<glyph unicode="&#xe7;" horiz-adv-x="1208" d="M35 715q0 154 60.5 292.5t163 237t243.5 156t295 57.5q187 0 319 -74v-550q-116 139 -291 139q-115 0 -193.5 -74.5t-78.5 -183.5t78.5 -183.5t193.5 -74.5q175 0 291 139v-551q-104 -59 -244 -70l-153 -366h-318l170 395q-236 70 -386 264.5t-150 446.5z" />
<glyph unicode="&#xe8;" d="M113 0v1434h960v-439h-469v-114h451v-310h-451v-127h475v-444h-966zM211 1880h428l192 -344h-280z" />
<glyph unicode="&#xe9;" d="M113 0v1434h960v-439h-469v-114h451v-310h-451v-127h475v-444h-966zM354 1536l193 344h428l-340 -344h-281z" />
<glyph unicode="&#xea;" d="M113 0v1434h960v-439h-469v-114h451v-310h-451v-127h475v-444h-966zM313 1536v297l275 125l274 -125v-297l-276 119z" />
<glyph unicode="&#xeb;" d="M113 0v1434h960v-439h-469v-114h451v-310h-451v-127h475v-444h-966zM174 1729q0 78 56 133t135 55q77 0 132.5 -55t55.5 -133q0 -79 -55.5 -136t-132.5 -57q-79 0 -135 56.5t-56 136.5zM623 1729q0 78 55.5 133t134.5 55q77 0 134 -55.5t57 -132.5q0 -79 -57 -136 t-134 -57q-79 0 -134.5 56.5t-55.5 136.5z" />
<glyph unicode="&#xec;" horiz-adv-x="716" d="M-2 1880h428l192 -344h-280zM113 0v1434h491v-1434h-491z" />
<glyph unicode="&#xed;" horiz-adv-x="716" d="M96 1536l193 344h428l-340 -344h-281zM113 0v1434h491v-1434h-491z" />
<glyph unicode="&#xee;" horiz-adv-x="716" d="M84 1536v297l274 125l275 -125v-297l-277 119zM113 0v1434h491v-1434h-491z" />
<glyph unicode="&#xef;" horiz-adv-x="716" d="M-55 1729q0 78 55.5 133t134.5 55q77 0 133 -55t56 -133q0 -79 -56 -136t-133 -57q-79 0 -134.5 56.5t-55.5 136.5zM113 0v1434h491v-1434h-491zM393 1729q0 78 56 133t135 55q77 0 133.5 -55.5t56.5 -132.5q0 -79 -56.5 -136t-133.5 -57q-79 0 -135 56.5t-56 136.5z" />
<glyph unicode="&#xf0;" horiz-adv-x="1603" d="M80 578v278h113v578h671q144 0 274.5 -57t225 -153.5t150 -229.5t55.5 -279q0 -147 -55 -279t-148.5 -227.5t-224.5 -152t-277 -56.5h-671v578h-113zM684 449h107q111 0 189.5 77t78.5 189q0 113 -78.5 190.5t-189.5 77.5h-107v-127h150v-278h-150v-129z" />
<glyph unicode="&#xf1;" horiz-adv-x="1464" d="M113 0v1434h397l367 -375v375h475v-1502l-760 766v-698h-479zM348 1655q28 74 78 123t98.5 66.5t98.5 17.5q40 0 94.5 -16.5t83.5 -16.5q57 0 84 55l229 -141q-28 -74 -77.5 -123t-98 -66.5t-98.5 -17.5q-35 0 -93 16.5t-85 16.5q-57 0 -84 -56z" />
<glyph unicode="&#xf2;" horiz-adv-x="1593" d="M35 715q0 155 61 293.5t163.5 236.5t243 155.5t294.5 57.5t294.5 -57.5t243 -155.5t163.5 -236.5t61 -293.5q0 -207 -103.5 -378.5t-278 -268.5t-380.5 -97t-380.5 97t-278 268.5t-103.5 378.5zM360 1880h428l193 -344h-281zM553 715q0 -106 69.5 -177t174.5 -71t174 71 t69 177t-69 177t-174 71t-174.5 -71t-69.5 -177z" />
<glyph unicode="&#xf3;" horiz-adv-x="1593" d="M35 715q0 155 61 293.5t163.5 236.5t243 155.5t294.5 57.5t294.5 -57.5t243 -155.5t163.5 -236.5t61 -293.5q0 -207 -103.5 -378.5t-278 -268.5t-380.5 -97t-380.5 97t-278 268.5t-103.5 378.5zM553 715q0 -106 69.5 -177t174.5 -71t174 71t69 177t-69 177t-174 71 t-174.5 -71t-69.5 -177zM584 1536l192 344h428l-340 -344h-280z" />
<glyph unicode="&#xf4;" horiz-adv-x="1593" d="M35 715q0 155 61 293.5t163.5 236.5t243 155.5t294.5 57.5t294.5 -57.5t243 -155.5t163.5 -236.5t61 -293.5q0 -207 -103.5 -378.5t-278 -268.5t-380.5 -97t-380.5 97t-278 268.5t-103.5 378.5zM522 1536v297l275 125l274 -125v-297l-276 119zM553 715q0 -106 69.5 -177 t174.5 -71t174 71t69 177t-69 177t-174 71t-174.5 -71t-69.5 -177z" />
<glyph unicode="&#xf5;" horiz-adv-x="1593" d="M35 715q0 155 61 293.5t163.5 236.5t243 155.5t294.5 57.5t294.5 -57.5t243 -155.5t163.5 -236.5t61 -293.5q0 -207 -103.5 -378.5t-278 -268.5t-380.5 -97t-380.5 97t-278 268.5t-103.5 378.5zM414 1655q28 74 77.5 123t98 66.5t98.5 17.5q40 0 94.5 -16.5t83.5 -16.5 q57 0 84 55l230 -141q-28 -74 -78 -123t-98.5 -66.5t-98.5 -17.5q-35 0 -93 16.5t-85 16.5q-57 0 -84 -56zM553 715q0 -106 69.5 -177t174.5 -71t174 71t69 177t-69 177t-174 71t-174.5 -71t-69.5 -177z" />
<glyph unicode="&#xf6;" horiz-adv-x="1593" d="M35 715q0 155 61 293.5t163.5 236.5t243 155.5t294.5 57.5t294.5 -57.5t243 -155.5t163.5 -236.5t61 -293.5q0 -207 -103.5 -378.5t-278 -268.5t-380.5 -97t-380.5 97t-278 268.5t-103.5 378.5zM389 1729q0 78 56 133t135 55q77 0 132.5 -55t55.5 -133q0 -79 -55.5 -136 t-132.5 -57q-79 0 -135 56.5t-56 136.5zM553 715q0 -106 69.5 -177t174.5 -71t174 71t69 177t-69 177t-174 71t-174.5 -71t-69.5 -177zM838 1729q0 78 55.5 133t134.5 55q77 0 134 -55.5t57 -132.5q0 -79 -57 -136t-134 -57q-79 0 -134.5 56.5t-55.5 136.5z" />
<glyph unicode="&#xf7;" horiz-adv-x="1058" d="M0 563v299h1059v-299h-1059zM377 356q0 64 45 109t110 45q64 0 109 -45.5t45 -108.5t-45 -107t-109 -44q-66 0 -110.5 44t-44.5 107zM377 1071q0 64 45 109t110 45q64 0 109 -45.5t45 -108.5t-45 -107t-109 -44q-66 0 -110.5 44t-44.5 107z" />
<glyph unicode="&#xf8;" horiz-adv-x="1593" d="M35 715q0 155 61 293.5t163.5 236.5t243 155.5t294.5 57.5q248 0 450 -143l115 112l160 -159l-111 -111q148 -195 148 -442q0 -207 -103.5 -378.5t-278 -268.5t-380.5 -97q-251 0 -451 142l-108 -107l-160 160l104 104q-147 197 -147 445zM553 715q0 -41 8 -72l313 307 q-41 13 -77 13q-105 0 -174.5 -71t-69.5 -177zM719 477q38 -10 78 -10q105 0 174 71t69 177q0 31 -10 69z" />
<glyph unicode="&#xf9;" horiz-adv-x="1306" d="M102 504v930h492v-924q0 -25 17 -42t42 -17t42.5 17t17.5 42v924h491v-930q0 -160 -73.5 -282.5t-197.5 -186.5t-278 -64q-153 0 -278 64t-200 186.5t-75 282.5zM219 1880h428l193 -344h-281z" />
<glyph unicode="&#xfa;" horiz-adv-x="1306" d="M102 504v930h492v-924q0 -25 17 -42t42 -17t42.5 17t17.5 42v924h491v-930q0 -160 -73.5 -282.5t-197.5 -186.5t-278 -64q-153 0 -278 64t-200 186.5t-75 282.5zM432 1536l193 344h428l-340 -344h-281z" />
<glyph unicode="&#xfb;" horiz-adv-x="1306" d="M102 504v930h492v-924q0 -25 17 -42t42 -17t42.5 17t17.5 42v924h491v-930q0 -160 -73.5 -282.5t-197.5 -186.5t-278 -64q-153 0 -278 64t-200 186.5t-75 282.5zM383 1536v297l274 125l275 -125v-297l-277 119z" />
<glyph unicode="&#xfc;" horiz-adv-x="1306" d="M102 504v930h492v-924q0 -25 17 -42t42 -17t42.5 17t17.5 42v924h491v-930q0 -160 -73.5 -282.5t-197.5 -186.5t-278 -64q-153 0 -278 64t-200 186.5t-75 282.5zM238 1729q0 78 55.5 133t134.5 55q77 0 132.5 -55t55.5 -133q0 -79 -55.5 -136t-132.5 -57 q-79 0 -134.5 56.5t-55.5 136.5zM686 1729q0 78 56 133t135 55q77 0 133.5 -55.5t56.5 -132.5q0 -79 -56.5 -136t-133.5 -57q-79 0 -135 56.5t-56 136.5z" />
<glyph unicode="&#xfd;" horiz-adv-x="1452" d="M-8 1434h557l174 -369l184 369h551l-487 -844v-590h-490v590zM567 1536l193 344h428l-340 -344h-281z" />
<glyph unicode="&#xfe;" horiz-adv-x="1323" d="M113 0v1434h491v-140h168q108 0 204 -41t164 -111t108 -165.5t40 -200.5q0 -141 -67 -263.5t-186.5 -196.5t-262.5 -74h-168v-242h-491zM604 664h78q43 0 73.5 30.5t30.5 73.5t-30.5 73.5t-73.5 30.5h-78v-208z" />
<glyph unicode="&#xff;" horiz-adv-x="1452" d="M-8 1434h557l174 -369l184 369h551l-487 -844v-590h-490v590zM311 1729q0 78 56 133t135 55q77 0 132.5 -55t55.5 -133q0 -79 -55.5 -136t-132.5 -57q-79 0 -135 56.5t-56 136.5zM760 1729q0 78 55.5 133t134.5 55q77 0 134 -55.5t57 -132.5q0 -79 -57 -136t-134 -57 q-79 0 -134.5 56.5t-55.5 136.5z" />
<glyph unicode="&#x100;" horiz-adv-x="1421" d="M-25 0l734 1470l737 -1470h-531l-34 88h-342l-35 -88h-529zM399 1536v279h623v-279h-623zM621 328h170l-82 211z" />
<glyph unicode="&#x101;" horiz-adv-x="1421" d="M-25 0l734 1470l737 -1470h-531l-34 88h-342l-35 -88h-529zM399 1536v279h623v-279h-623zM621 328h170l-82 211z" />
<glyph unicode="&#x102;" horiz-adv-x="1421" d="M-25 0l734 1470l737 -1470h-531l-34 88h-342l-35 -88h-529zM377 1845h315v-57q0 -8 6 -13.5t13 -5.5t12.5 5.5t5.5 13.5v57h315q0 -163 -90 -236t-243 -73t-243.5 73t-90.5 236zM621 328h170l-82 211z" />
<glyph unicode="&#x103;" horiz-adv-x="1421" d="M-25 0l734 1470l737 -1470h-531l-34 88h-342l-35 -88h-529zM377 1845h315v-57q0 -8 6 -13.5t13 -5.5t12.5 5.5t5.5 13.5v57h315q0 -163 -90 -236t-243 -73t-243.5 73t-90.5 236zM621 328h170l-82 211z" />
<glyph unicode="&#x104;" horiz-adv-x="1421" d="M-25 0l734 1470l737 -1470q-50 -17 -75 -48.5t-25 -64.5q0 -82 100 -82v-254q-184 0 -274.5 63.5t-90.5 182.5q0 60 35.5 115t91.5 88h-293l-34 88h-342l-35 -88h-529zM621 328h170l-82 211z" />
<glyph unicode="&#x105;" horiz-adv-x="1421" d="M-25 0l734 1470l737 -1470q-50 -17 -75 -48.5t-25 -64.5q0 -82 100 -82v-254q-184 0 -274.5 63.5t-90.5 182.5q0 60 35.5 115t91.5 88h-293l-34 88h-342l-35 -88h-529zM621 328h170l-82 211z" />
<glyph unicode="&#x106;" horiz-adv-x="1208" d="M35 715q0 154 60.5 292.5t163 237t243.5 156t295 57.5q187 0 319 -74v-550q-116 139 -291 139q-115 0 -193.5 -74.5t-78.5 -183.5t78.5 -183.5t193.5 -74.5q175 0 291 139v-551q-132 -74 -319 -74q-207 0 -381.5 97.5t-277.5 269t-103 377.5zM539 1536l192 344h428 l-340 -344h-280z" />
<glyph unicode="&#x107;" horiz-adv-x="1208" d="M35 715q0 154 60.5 292.5t163 237t243.5 156t295 57.5q187 0 319 -74v-550q-116 139 -291 139q-115 0 -193.5 -74.5t-78.5 -183.5t78.5 -183.5t193.5 -74.5q175 0 291 139v-551q-132 -74 -319 -74q-207 0 -381.5 97.5t-277.5 269t-103 377.5zM539 1536l192 344h428 l-340 -344h-280z" />
<glyph unicode="&#x108;" horiz-adv-x="1208" d="M35 715q0 154 60.5 292.5t163 237t243.5 156t295 57.5q187 0 319 -74v-550q-116 139 -291 139q-115 0 -193.5 -74.5t-78.5 -183.5t78.5 -183.5t193.5 -74.5q175 0 291 139v-551q-132 -74 -319 -74q-207 0 -381.5 97.5t-277.5 269t-103 377.5zM485 1536v297l275 125 l274 -125v-297l-276 119z" />
<glyph unicode="&#x109;" horiz-adv-x="1208" d="M35 715q0 154 60.5 292.5t163 237t243.5 156t295 57.5q187 0 319 -74v-550q-116 139 -291 139q-115 0 -193.5 -74.5t-78.5 -183.5t78.5 -183.5t193.5 -74.5q175 0 291 139v-551q-132 -74 -319 -74q-207 0 -381.5 97.5t-277.5 269t-103 377.5zM485 1536v297l275 125 l274 -125v-297l-276 119z" />
<glyph unicode="&#x10a;" horiz-adv-x="1208" d="M35 715q0 154 60.5 292.5t163 237t243.5 156t295 57.5q187 0 319 -74v-550q-116 139 -291 139q-115 0 -193.5 -74.5t-78.5 -183.5t78.5 -183.5t193.5 -74.5q175 0 291 139v-551q-132 -74 -319 -74q-207 0 -381.5 97.5t-277.5 269t-103 377.5zM584 1720q0 75 55.5 129 t132.5 54q74 0 129 -54t55 -129q0 -79 -53.5 -131.5t-130.5 -52.5q-80 0 -134 52.5t-54 131.5z" />
<glyph unicode="&#x10b;" horiz-adv-x="1208" d="M35 715q0 154 60.5 292.5t163 237t243.5 156t295 57.5q187 0 319 -74v-550q-116 139 -291 139q-115 0 -193.5 -74.5t-78.5 -183.5t78.5 -183.5t193.5 -74.5q175 0 291 139v-551q-132 -74 -319 -74q-207 0 -381.5 97.5t-277.5 269t-103 377.5zM584 1720q0 75 55.5 129 t132.5 54q74 0 129 -54t55 -129q0 -79 -53.5 -131.5t-130.5 -52.5q-80 0 -134 52.5t-54 131.5z" />
<glyph unicode="&#x10c;" horiz-adv-x="1208" d="M35 715q0 154 60.5 292.5t163 237t243.5 156t295 57.5q187 0 319 -74v-550q-116 139 -291 139q-115 0 -193.5 -74.5t-78.5 -183.5t78.5 -183.5t193.5 -74.5q175 0 291 139v-551q-132 -74 -319 -74q-207 0 -381.5 97.5t-277.5 269t-103 377.5zM498 1661v297l272 -119 l277 119v-297l-275 -125z" />
<glyph unicode="&#x10d;" horiz-adv-x="1208" d="M35 715q0 154 60.5 292.5t163 237t243.5 156t295 57.5q187 0 319 -74v-550q-116 139 -291 139q-115 0 -193.5 -74.5t-78.5 -183.5t78.5 -183.5t193.5 -74.5q175 0 291 139v-551q-132 -74 -319 -74q-207 0 -381.5 97.5t-277.5 269t-103 377.5zM498 1661v297l272 -119 l277 119v-297l-275 -125z" />
<glyph unicode="&#x10e;" horiz-adv-x="1523" d="M113 0v1434h671q144 0 274.5 -57t225 -153.5t150 -229.5t55.5 -279q0 -147 -55 -279t-148.5 -227.5t-224.5 -152t-277 -56.5h-671zM430 1661v297l272 -119l277 119v-297l-274 -125zM604 449h107q111 0 189.5 77t78.5 189q0 113 -78.5 190.5t-189.5 77.5h-107v-534z" />
<glyph unicode="&#x10f;" horiz-adv-x="1523" d="M113 0v1434h671q144 0 274.5 -57t225 -153.5t150 -229.5t55.5 -279q0 -147 -55 -279t-148.5 -227.5t-224.5 -152t-277 -56.5h-671zM430 1661v297l272 -119l277 119v-297l-274 -125zM604 449h107q111 0 189.5 77t78.5 189q0 113 -78.5 190.5t-189.5 77.5h-107v-534z" />
<glyph unicode="&#x110;" horiz-adv-x="1603" d="M80 578v278h113v578h671q144 0 274.5 -57t225 -153.5t150 -229.5t55.5 -279q0 -147 -55 -279t-148.5 -227.5t-224.5 -152t-277 -56.5h-671v578h-113zM684 449h107q111 0 189.5 77t78.5 189q0 113 -78.5 190.5t-189.5 77.5h-107v-127h150v-278h-150v-129z" />
<glyph unicode="&#x111;" horiz-adv-x="1603" d="M80 578v278h113v578h671q144 0 274.5 -57t225 -153.5t150 -229.5t55.5 -279q0 -147 -55 -279t-148.5 -227.5t-224.5 -152t-277 -56.5h-671v578h-113zM684 449h107q111 0 189.5 77t78.5 189q0 113 -78.5 190.5t-189.5 77.5h-107v-127h150v-278h-150v-129z" />
<glyph unicode="&#x112;" d="M113 0v1434h960v-439h-469v-114h451v-310h-451v-127h475v-444h-966zM276 1536v279h623v-279h-623z" />
<glyph unicode="&#x113;" d="M113 0v1434h960v-439h-469v-114h451v-310h-451v-127h475v-444h-966zM276 1536v279h623v-279h-623z" />
<glyph unicode="&#x114;" d="M113 0v1434h960v-439h-469v-114h451v-310h-451v-127h475v-444h-966zM254 1845h315v-57q0 -8 5.5 -13.5t13.5 -5.5q7 0 12.5 5.5t5.5 13.5v57h316q0 -163 -90.5 -236t-243.5 -73t-243.5 73t-90.5 236z" />
<glyph unicode="&#x115;" d="M113 0v1434h960v-439h-469v-114h451v-310h-451v-127h475v-444h-966zM254 1845h315v-57q0 -8 5.5 -13.5t13.5 -5.5q7 0 12.5 5.5t5.5 13.5v57h316q0 -163 -90.5 -236t-243.5 -73t-243.5 73t-90.5 236z" />
<glyph unicode="&#x116;" d="M113 0v1434h960v-439h-469v-114h451v-310h-451v-127h475v-444h-966zM420 1720q0 75 55.5 129t132.5 54q74 0 129.5 -54.5t55.5 -128.5q0 -79 -54 -131.5t-131 -52.5q-80 0 -134 52.5t-54 131.5z" />
<glyph unicode="&#x117;" d="M113 0v1434h960v-439h-469v-114h451v-310h-451v-127h475v-444h-966zM420 1720q0 75 55.5 129t132.5 54q74 0 129.5 -54.5t55.5 -128.5q0 -79 -54 -131.5t-131 -52.5q-80 0 -134 52.5t-54 131.5z" />
<glyph unicode="&#x118;" d="M113 0v1434h960v-439h-469v-114h451v-310h-451v-127h475v-444q-46 -18 -70 -49.5t-24 -63.5q0 -82 100 -82v-254q-364 0 -364 246q0 60 35.5 115t91.5 88h-735z" />
<glyph unicode="&#x119;" d="M113 0v1434h960v-439h-469v-114h451v-310h-451v-127h475v-444q-46 -18 -70 -49.5t-24 -63.5q0 -82 100 -82v-254q-364 0 -364 246q0 60 35.5 115t91.5 88h-735z" />
<glyph unicode="&#x11a;" d="M113 0v1434h960v-439h-469v-114h451v-310h-451v-127h475v-444h-966zM313 1661v297l273 -119l276 119v-297l-274 -125z" />
<glyph unicode="&#x11b;" d="M113 0v1434h960v-439h-469v-114h451v-310h-451v-127h475v-444h-966zM313 1661v297l273 -119l276 119v-297l-274 -125z" />
<glyph unicode="&#x11c;" horiz-adv-x="1613" d="M35 715q0 207 103 378t277.5 268t381.5 97q404 0 630 -293l-423 -278q-30 39 -81 62.5t-114 23.5q-108 0 -182 -77.5t-74 -184.5q0 -108 77 -189.5t197 -81.5q148 0 209 90h-186v293h700q9 -55 9 -108q0 -151 -59 -288t-159.5 -237.5t-242.5 -159.5t-301 -59 q-207 0 -381.5 97.5t-277.5 269t-103 377.5zM532 1536v297l275 125l274 -125v-297l-276 119z" />
<glyph unicode="&#x11d;" horiz-adv-x="1613" d="M35 715q0 207 103 378t277.5 268t381.5 97q404 0 630 -293l-423 -278q-30 39 -81 62.5t-114 23.5q-108 0 -182 -77.5t-74 -184.5q0 -108 77 -189.5t197 -81.5q148 0 209 90h-186v293h700q9 -55 9 -108q0 -151 -59 -288t-159.5 -237.5t-242.5 -159.5t-301 -59 q-207 0 -381.5 97.5t-277.5 269t-103 377.5zM532 1536v297l275 125l274 -125v-297l-276 119z" />
<glyph unicode="&#x11e;" horiz-adv-x="1613" d="M35 715q0 207 103 378t277.5 268t381.5 97q404 0 630 -293l-423 -278q-30 39 -81 62.5t-114 23.5q-108 0 -182 -77.5t-74 -184.5q0 -108 77 -189.5t197 -81.5q148 0 209 90h-186v293h700q9 -55 9 -108q0 -151 -59 -288t-159.5 -237.5t-242.5 -159.5t-301 -59 q-207 0 -381.5 97.5t-277.5 269t-103 377.5zM473 1845h315v-57q0 -8 6 -13.5t13 -5.5t12.5 5.5t5.5 13.5v57h316q0 -163 -90.5 -236t-243.5 -73t-243.5 73t-90.5 236z" />
<glyph unicode="&#x11f;" horiz-adv-x="1613" d="M35 715q0 207 103 378t277.5 268t381.5 97q404 0 630 -293l-423 -278q-30 39 -81 62.5t-114 23.5q-108 0 -182 -77.5t-74 -184.5q0 -108 77 -189.5t197 -81.5q148 0 209 90h-186v293h700q9 -55 9 -108q0 -151 -59 -288t-159.5 -237.5t-242.5 -159.5t-301 -59 q-207 0 -381.5 97.5t-277.5 269t-103 377.5zM473 1845h315v-57q0 -8 6 -13.5t13 -5.5t12.5 5.5t5.5 13.5v57h316q0 -163 -90.5 -236t-243.5 -73t-243.5 73t-90.5 236z" />
<glyph unicode="&#x120;" horiz-adv-x="1613" d="M35 715q0 207 103 378t277.5 268t381.5 97q404 0 630 -293l-423 -278q-30 39 -81 62.5t-114 23.5q-108 0 -182 -77.5t-74 -184.5q0 -108 77 -189.5t197 -81.5q148 0 209 90h-186v293h700q9 -55 9 -108q0 -151 -59 -288t-159.5 -237.5t-242.5 -159.5t-301 -59 q-207 0 -381.5 97.5t-277.5 269t-103 377.5zM621 1720q0 75 55.5 129t132.5 54q74 0 129 -54t55 -129q0 -79 -53.5 -131.5t-130.5 -52.5q-80 0 -134 52.5t-54 131.5z" />
<glyph unicode="&#x121;" horiz-adv-x="1613" d="M35 715q0 207 103 378t277.5 268t381.5 97q404 0 630 -293l-423 -278q-30 39 -81 62.5t-114 23.5q-108 0 -182 -77.5t-74 -184.5q0 -108 77 -189.5t197 -81.5q148 0 209 90h-186v293h700q9 -55 9 -108q0 -151 -59 -288t-159.5 -237.5t-242.5 -159.5t-301 -59 q-207 0 -381.5 97.5t-277.5 269t-103 377.5zM621 1720q0 75 55.5 129t132.5 54q74 0 129 -54t55 -129q0 -79 -53.5 -131.5t-130.5 -52.5q-80 0 -134 52.5t-54 131.5z" />
<glyph unicode="&#x122;" horiz-adv-x="1613" d="M35 715q0 207 103 378t277.5 268t381.5 97q404 0 630 -293l-423 -278q-30 39 -81 62.5t-114 23.5q-108 0 -182 -77.5t-74 -184.5q0 -108 77 -189.5t197 -81.5q148 0 209 90h-186v293h700q9 -55 9 -108q0 -151 -59 -288t-159.5 -237.5t-242.5 -159.5t-301 -59 q-207 0 -381.5 97.5t-277.5 269t-103 377.5zM553 -537l59 402h447l-252 -402h-254z" />
<glyph unicode="&#x123;" horiz-adv-x="1613" d="M35 715q0 207 103 378t277.5 268t381.5 97q404 0 630 -293l-423 -278q-30 39 -81 62.5t-114 23.5q-108 0 -182 -77.5t-74 -184.5q0 -108 77 -189.5t197 -81.5q148 0 209 90h-186v293h700q9 -55 9 -108q0 -151 -59 -288t-159.5 -237.5t-242.5 -159.5t-301 -59 q-207 0 -381.5 97.5t-277.5 269t-103 377.5zM553 -537l59 402h447l-252 -402h-254z" />
<glyph unicode="&#x124;" horiz-adv-x="1421" d="M113 0v1434h491v-506h213v506h492v-1434h-492v508h-213v-508h-491zM440 1536v297l275 125l274 -125v-297l-276 119z" />
<glyph unicode="&#x125;" horiz-adv-x="1421" d="M113 0v1434h491v-506h213v506h492v-1434h-492v508h-213v-508h-491zM440 1536v297l275 125l274 -125v-297l-276 119z" />
<glyph unicode="&#x126;" horiz-adv-x="1503" d="M41 1047v253h113v134h491v-134h213v134h492v-134h112v-253h-112v-1047h-492v508h-213v-508h-491v1047h-113zM645 928h213v119h-213v-119z" />
<glyph unicode="&#x127;" horiz-adv-x="1503" d="M41 1047v253h113v134h491v-134h213v134h492v-134h112v-253h-112v-1047h-492v508h-213v-508h-491v1047h-113zM645 928h213v119h-213v-119z" />
<glyph unicode="&#x128;" horiz-adv-x="716" d="M-20 1655q28 74 77.5 123t98 66.5t98.5 17.5q40 0 94.5 -16.5t83.5 -16.5q57 0 84 55l229 -141q-28 -74 -77.5 -123t-98 -66.5t-98.5 -17.5q-35 0 -93 16.5t-85 16.5q-57 0 -84 -56zM113 0v1434h491v-1434h-491z" />
<glyph unicode="&#x129;" horiz-adv-x="716" d="M-20 1655q28 74 77.5 123t98 66.5t98.5 17.5q40 0 94.5 -16.5t83.5 -16.5q57 0 84 55l229 -141q-28 -74 -77.5 -123t-98 -66.5t-98.5 -17.5q-35 0 -93 16.5t-85 16.5q-57 0 -84 -56zM113 0v1434h491v-1434h-491z" />
<glyph unicode="&#x12a;" horiz-adv-x="716" d="M47 1536v279h623v-279h-623zM113 0v1434h491v-1434h-491z" />
<glyph unicode="&#x12b;" horiz-adv-x="716" d="M47 1536v279h623v-279h-623zM113 0v1434h491v-1434h-491z" />
<glyph unicode="&#x12c;" horiz-adv-x="716" d="M25 1845h315v-57q0 -8 5.5 -13.5t12.5 -5.5q8 0 13.5 5.5t5.5 13.5v57h315q0 -163 -90.5 -236t-243.5 -73t-243 73t-90 236zM113 0v1434h491v-1434h-491z" />
<glyph unicode="&#x12d;" horiz-adv-x="716" d="M25 1845h315v-57q0 -8 5.5 -13.5t12.5 -5.5q8 0 13.5 5.5t5.5 13.5v57h315q0 -163 -90.5 -236t-243.5 -73t-243 73t-90 236zM113 0v1434h491v-1434h-491z" />
<glyph unicode="&#x12e;" horiz-adv-x="716" d="M113 0v1434h491v-1434q-50 -17 -75 -48.5t-25 -64.5q0 -82 100 -82v-254q-364 0 -364 246q0 60 35.5 115t91.5 88h-254z" />
<glyph unicode="&#x12f;" horiz-adv-x="716" d="M113 0v1434h491v-1434q-50 -17 -75 -48.5t-25 -64.5q0 -82 100 -82v-254q-364 0 -364 246q0 60 35.5 115t91.5 88h-254z" />
<glyph unicode="&#x130;" horiz-adv-x="716" d="M113 0v1434h491v-1434h-491zM178 1720q0 75 56 129t133 54q74 0 129 -54t55 -129q0 -79 -53.5 -131.5t-130.5 -52.5q-80 0 -134.5 52.5t-54.5 131.5z" />
<glyph unicode="&#x131;" horiz-adv-x="716" d="M113 0v1434h491v-1434h-491z" />
<glyph unicode="&#x132;" horiz-adv-x="1951" d="M113 0v1434h491v-1434h-491zM786 518h482v-35q0 -17 11.5 -27t25.5 -10q15 0 25.5 11t10.5 26v951h498v-959q0 -215 -152.5 -359.5t-375.5 -144.5q-99 0 -193 39t-168 108t-119 173.5t-45 226.5z" />
<glyph unicode="&#x133;" horiz-adv-x="1951" d="M113 0v1434h491v-1434h-491zM786 518h482v-35q0 -17 11.5 -27t25.5 -10q15 0 25.5 11t10.5 26v951h498v-959q0 -215 -152.5 -359.5t-375.5 -144.5q-99 0 -193 39t-168 108t-119 173.5t-45 226.5z" />
<glyph unicode="&#x134;" horiz-adv-x="1234" d="M70 518h481v-35q0 -17 11.5 -27t25.5 -10q15 0 26 11t11 26v951h497v-959q0 -215 -152.5 -359.5t-375.5 -144.5q-99 0 -192.5 39t-167.5 108t-119 173.5t-45 226.5zM592 1516v296l274 125l275 -125v-296l-277 118z" />
<glyph unicode="&#x135;" horiz-adv-x="1234" d="M70 518h481v-35q0 -17 11.5 -27t25.5 -10q15 0 26 11t11 26v951h497v-959q0 -215 -152.5 -359.5t-375.5 -144.5q-99 0 -192.5 39t-167.5 108t-119 173.5t-45 226.5zM592 1516v296l274 125l275 -125v-296l-277 118z" />
<glyph unicode="&#x136;" horiz-adv-x="1427" d="M113 0v1434h491v-377l223 377h557l-440 -668l483 -766h-581l-242 422v-422h-491zM461 -537l59 402h447l-252 -402h-254z" />
<glyph unicode="&#x137;" horiz-adv-x="1427" d="M113 0v1434h491v-377l223 377h557l-440 -668l483 -766h-581l-242 422v-422h-491zM461 -537l59 402h447l-252 -402h-254z" />
<glyph unicode="&#x139;" horiz-adv-x="1167" d="M113 0v1434h491v-985h494v-449h-985zM150 1536l192 344h428l-340 -344h-280z" />
<glyph unicode="&#x13a;" horiz-adv-x="1167" d="M113 0v1434h491v-985h494v-449h-985zM150 1536l192 344h428l-340 -344h-280z" />
<glyph unicode="&#x13b;" horiz-adv-x="1167" d="M113 0v1434h491v-985h494v-449h-985zM330 -537l59 402h447l-252 -402h-254z" />
<glyph unicode="&#x13c;" horiz-adv-x="1167" d="M113 0v1434h491v-985h494v-449h-985zM330 -537l59 402h447l-252 -402h-254z" />
<glyph unicode="&#x13d;" horiz-adv-x="1167" d="M113 0v1434h491v-985h494v-449h-985zM700 905l43 529h404l-139 -529h-308z" />
<glyph unicode="&#x13e;" horiz-adv-x="1167" d="M113 0v1434h491v-985h494v-449h-985zM700 905l43 529h404l-139 -529h-308z" />
<glyph unicode="&#x13f;" horiz-adv-x="1167" d="M113 0v1434h491v-985h494v-449h-985zM702 852q0 104 73.5 177t187.5 73q104 0 177.5 -74t73.5 -176t-73.5 -175t-177.5 -73q-115 0 -188 72t-73 176z" />
<glyph unicode="&#x140;" horiz-adv-x="1167" d="M113 0v1434h491v-985h494v-449h-985zM702 852q0 104 73.5 177t187.5 73q104 0 177.5 -74t73.5 -176t-73.5 -175t-177.5 -73q-115 0 -188 72t-73 176z" />
<glyph unicode="&#x141;" horiz-adv-x="1230" d="M72 426v317l104 37v654h492v-484l327 115v-317l-327 -115v-184h493v-449h-985v463z" />
<glyph unicode="&#x142;" horiz-adv-x="1230" d="M72 426v317l104 37v654h492v-484l327 115v-317l-327 -115v-184h493v-449h-985v463z" />
<glyph unicode="&#x143;" horiz-adv-x="1464" d="M113 0v1434h397l367 -375v375h475v-1502l-760 766v-698h-479zM516 1536l193 344h428l-340 -344h-281z" />
<glyph unicode="&#x144;" horiz-adv-x="1464" d="M113 0v1434h397l367 -375v375h475v-1502l-760 766v-698h-479zM516 1536l193 344h428l-340 -344h-281z" />
<glyph unicode="&#x145;" horiz-adv-x="1464" d="M113 0v1434h397l367 -375v375h475v-1502l-760 766v-698h-479zM528 -537l60 402h446l-252 -402h-254z" />
<glyph unicode="&#x146;" horiz-adv-x="1464" d="M113 0v1434h397l367 -375v375h475v-1502l-760 766v-698h-479zM528 -537l60 402h446l-252 -402h-254z" />
<glyph unicode="&#x147;" horiz-adv-x="1464" d="M113 0v1434h397l367 -375v375h475v-1502l-760 766v-698h-479zM457 1661v297l272 -119l277 119v-297l-275 -125z" />
<glyph unicode="&#x148;" horiz-adv-x="1464" d="M113 0v1434h397l367 -375v375h475v-1502l-760 766v-698h-479zM457 1661v297l272 -119l277 119v-297l-275 -125z" />
<glyph unicode="&#x14a;" horiz-adv-x="1464" d="M113 0v1434h397l367 -375v375h475v-1442q0 -142 -70.5 -258t-191.5 -181t-267 -65h-106v455h82q55 0 55 57v434l-262 264v-698h-479z" />
<glyph unicode="&#x14b;" horiz-adv-x="1464" d="M113 0v1434h397l367 -375v375h475v-1442q0 -142 -70.5 -258t-191.5 -181t-267 -65h-106v455h82q55 0 55 57v434l-262 264v-698h-479z" />
<glyph unicode="&#x14c;" horiz-adv-x="1593" d="M35 715q0 155 61 293.5t163.5 236.5t243 155.5t294.5 57.5t294.5 -57.5t243 -155.5t163.5 -236.5t61 -293.5q0 -207 -103.5 -378.5t-278 -268.5t-380.5 -97t-380.5 97t-278 268.5t-103.5 378.5zM485 1536v279h623v-279h-623zM553 715q0 -106 69.5 -177t174.5 -71t174 71 t69 177t-69 177t-174 71t-174.5 -71t-69.5 -177z" />
<glyph unicode="&#x14d;" horiz-adv-x="1593" d="M35 715q0 155 61 293.5t163.5 236.5t243 155.5t294.5 57.5t294.5 -57.5t243 -155.5t163.5 -236.5t61 -293.5q0 -207 -103.5 -378.5t-278 -268.5t-380.5 -97t-380.5 97t-278 268.5t-103.5 378.5zM485 1536v279h623v-279h-623zM553 715q0 -106 69.5 -177t174.5 -71t174 71 t69 177t-69 177t-174 71t-174.5 -71t-69.5 -177z" />
<glyph unicode="&#x14e;" horiz-adv-x="1576" d="M35 715q0 155 61 293.5t163.5 236.5t243 155.5t294.5 57.5t294.5 -57.5t243 -155.5t163.5 -236.5t61 -293.5q0 -207 -103.5 -378.5t-278 -268.5t-380.5 -97t-380.5 97t-278 268.5t-103.5 378.5zM465 1845h315v-57q0 -8 6 -13.5t13 -5.5t12.5 5.5t5.5 13.5v57h316 q0 -163 -90.5 -236t-243.5 -73t-243.5 73t-90.5 236zM553 715q0 -106 69.5 -177t174.5 -71t174 71t69 177t-69 177t-174 71t-174.5 -71t-69.5 -177z" />
<glyph unicode="&#x14f;" horiz-adv-x="1593" d="M35 715q0 155 61 293.5t163.5 236.5t243 155.5t294.5 57.5t294.5 -57.5t243 -155.5t163.5 -236.5t61 -293.5q0 -207 -103.5 -378.5t-278 -268.5t-380.5 -97t-380.5 97t-278 268.5t-103.5 378.5zM465 1845h315v-57q0 -8 6 -13.5t13 -5.5t12.5 5.5t5.5 13.5v57h316 q0 -163 -90.5 -236t-243.5 -73t-243.5 73t-90.5 236zM553 715q0 -106 69.5 -177t174.5 -71t174 71t69 177t-69 177t-174 71t-174.5 -71t-69.5 -177z" />
<glyph unicode="&#x150;" horiz-adv-x="1593" d="M35 715q0 155 61 293.5t163.5 236.5t243 155.5t294.5 57.5t294.5 -57.5t243 -155.5t163.5 -236.5t61 -293.5q0 -207 -103.5 -378.5t-278 -268.5t-380.5 -97t-380.5 97t-278 268.5t-103.5 378.5zM424 1536l113 344h385l-236 -344h-262zM553 715q0 -106 69.5 -177 t174.5 -71t174 71t69 177t-69 177t-174 71t-174.5 -71t-69.5 -177zM842 1536l112 344h385l-235 -344h-262z" />
<glyph unicode="&#x151;" horiz-adv-x="1593" d="M35 715q0 155 61 293.5t163.5 236.5t243 155.5t294.5 57.5t294.5 -57.5t243 -155.5t163.5 -236.5t61 -293.5q0 -207 -103.5 -378.5t-278 -268.5t-380.5 -97t-380.5 97t-278 268.5t-103.5 378.5zM424 1536l113 344h385l-236 -344h-262zM553 715q0 -106 69.5 -177 t174.5 -71t174 71t69 177t-69 177t-174 71t-174.5 -71t-69.5 -177zM842 1536l112 344h385l-235 -344h-262z" />
<glyph unicode="&#x152;" horiz-adv-x="2113" d="M35 715q0 155 61 293.5t163.5 236.5t243 155.5t294.5 57.5q103 0 194 -24h1018v-439h-469v-114h451v-310h-451v-127h475v-444h-1009q-106 -29 -209 -29q-206 0 -380.5 97t-278 268.5t-103.5 378.5zM553 715q0 -106 69.5 -177t174.5 -71t174 71t69 177t-69 177t-174 71 t-174.5 -71t-69.5 -177z" />
<glyph unicode="&#x153;" horiz-adv-x="2113" d="M35 715q0 155 61 293.5t163.5 236.5t243 155.5t294.5 57.5q103 0 194 -24h1018v-439h-469v-114h451v-310h-451v-127h475v-444h-1009q-106 -29 -209 -29q-206 0 -380.5 97t-278 268.5t-103.5 378.5zM553 715q0 -106 69.5 -177t174.5 -71t174 71t69 177t-69 177t-174 71 t-174.5 -71t-69.5 -177z" />
<glyph unicode="&#x154;" horiz-adv-x="1347" d="M113 0v1434h579q169 0 305 -71t214.5 -201.5t78.5 -297.5q0 -119 -62.5 -217.5t-127.5 -134.5q176 -105 176 -338v-174h-479v152q0 71 -47.5 111t-110.5 40h-35v-303h-491zM422 1536l192 344h428l-340 -344h-280zM604 735h58q56 0 92.5 34.5t36.5 88.5t-36.5 89.5 t-92.5 35.5h-58v-248z" />
<glyph unicode="&#x155;" horiz-adv-x="1345" d="M113 0v1434h579q169 0 305 -71t214.5 -201.5t78.5 -297.5q0 -119 -62.5 -217.5t-127.5 -134.5q176 -105 176 -338v-174h-479v152q0 71 -47.5 111t-110.5 40h-35v-303h-491zM422 1536l192 344h428l-340 -344h-280zM604 735h58q56 0 92.5 34.5t36.5 88.5t-36.5 89.5 t-92.5 35.5h-58v-248z" />
<glyph unicode="&#x156;" horiz-adv-x="1347" d="M113 0v1434h579q169 0 305 -71t214.5 -201.5t78.5 -297.5q0 -119 -62.5 -217.5t-127.5 -134.5q176 -105 176 -338v-174h-479v152q0 71 -47.5 111t-110.5 40h-35v-303h-491zM420 -537l59 402h447l-252 -402h-254zM604 735h58q56 0 92.5 34.5t36.5 88.5t-36.5 89.5 t-92.5 35.5h-58v-248z" />
<glyph unicode="&#x157;" horiz-adv-x="1347" d="M113 0v1434h579q169 0 305 -71t214.5 -201.5t78.5 -297.5q0 -119 -62.5 -217.5t-127.5 -134.5q176 -105 176 -338v-174h-479v152q0 71 -47.5 111t-110.5 40h-35v-303h-491zM420 -537l59 402h447l-252 -402h-254zM604 735h58q56 0 92.5 34.5t36.5 88.5t-36.5 89.5 t-92.5 35.5h-58v-248z" />
<glyph unicode="&#x158;" horiz-adv-x="1347" d="M113 0v1434h579q169 0 305 -71t214.5 -201.5t78.5 -297.5q0 -119 -62.5 -217.5t-127.5 -134.5q176 -105 176 -338v-174h-479v152q0 71 -47.5 111t-110.5 40h-35v-303h-491zM371 1661v297l272 -119l277 119v-297l-275 -125zM604 735h58q56 0 92.5 34.5t36.5 88.5 t-36.5 89.5t-92.5 35.5h-58v-248z" />
<glyph unicode="&#x159;" horiz-adv-x="1347" d="M113 0v1434h579q169 0 305 -71t214.5 -201.5t78.5 -297.5q0 -119 -62.5 -217.5t-127.5 -134.5q176 -105 176 -338v-174h-479v152q0 71 -47.5 111t-110.5 40h-35v-303h-491zM371 1661v297l272 -119l277 119v-297l-275 -125zM604 735h58q56 0 92.5 34.5t36.5 88.5 t-36.5 89.5t-92.5 35.5h-58v-248z" />
<glyph unicode="&#x15a;" d="M35 950q0 129 61 240t170 177.5t240 66.5h481v-437h-450q-12 0 -19.5 -6.5t-7.5 -17.5t7.5 -18t19.5 -7h116q135 0 247.5 -61.5t177.5 -170.5t65 -243q0 -124 -65 -233t-178.5 -174.5t-246.5 -65.5h-555v455h531q13 0 20.5 7.5t7.5 18.5t-7.5 19t-20.5 8h-123 q-199 0 -335 125.5t-136 316.5zM434 1536l193 344h428l-340 -344h-281z" />
<glyph unicode="&#x15b;" d="M35 950q0 129 61 240t170 177.5t240 66.5h481v-437h-450q-12 0 -19.5 -6.5t-7.5 -17.5t7.5 -18t19.5 -7h116q135 0 247.5 -61.5t177.5 -170.5t65 -243q0 -124 -65 -233t-178.5 -174.5t-246.5 -65.5h-555v455h531q13 0 20.5 7.5t7.5 18.5t-7.5 19t-20.5 8h-123 q-199 0 -335 125.5t-136 316.5zM434 1536l193 344h428l-340 -344h-281z" />
<glyph unicode="&#x15c;" d="M35 950q0 129 61 240t170 177.5t240 66.5h481v-437h-450q-12 0 -19.5 -6.5t-7.5 -17.5t7.5 -18t19.5 -7h116q135 0 247.5 -61.5t177.5 -170.5t65 -243q0 -124 -65 -233t-178.5 -174.5t-246.5 -65.5h-555v455h531q13 0 20.5 7.5t7.5 18.5t-7.5 19t-20.5 8h-123 q-199 0 -335 125.5t-136 316.5zM342 1536v297l274 125l275 -125v-297l-277 119z" />
<glyph unicode="&#x15d;" d="M35 950q0 129 61 240t170 177.5t240 66.5h481v-437h-450q-12 0 -19.5 -6.5t-7.5 -17.5t7.5 -18t19.5 -7h116q135 0 247.5 -61.5t177.5 -170.5t65 -243q0 -124 -65 -233t-178.5 -174.5t-246.5 -65.5h-555v455h531q13 0 20.5 7.5t7.5 18.5t-7.5 19t-20.5 8h-123 q-199 0 -335 125.5t-136 316.5zM342 1536v297l274 125l275 -125v-297l-277 119z" />
<glyph unicode="&#x15e;" d="M35 950q0 129 61 240t170 177.5t240 66.5h481v-437h-450q-12 0 -19.5 -6.5t-7.5 -17.5t7.5 -18t19.5 -7h116q135 0 247.5 -61.5t177.5 -170.5t65 -243q0 -121 -62 -228.5t-170.5 -173.5t-236.5 -71l-164 -391h-317l167 391h-262v455h531q13 0 20.5 7.5t7.5 18.5t-7.5 19 t-20.5 8h-123q-199 0 -335 125.5t-136 316.5z" />
<glyph unicode="&#x15f;" d="M35 950q0 129 61 240t170 177.5t240 66.5h481v-437h-450q-12 0 -19.5 -6.5t-7.5 -17.5t7.5 -18t19.5 -7h116q135 0 247.5 -61.5t177.5 -170.5t65 -243q0 -121 -62 -228.5t-170.5 -173.5t-236.5 -71l-164 -391h-317l167 391h-262v455h531q13 0 20.5 7.5t7.5 18.5t-7.5 19 t-20.5 8h-123q-199 0 -335 125.5t-136 316.5z" />
<glyph unicode="&#x160;" d="M35 950q0 129 61 240t170 177.5t240 66.5h481v-437h-450q-12 0 -19.5 -6.5t-7.5 -17.5t7.5 -18t19.5 -7h116q135 0 247.5 -61.5t177.5 -170.5t65 -243q0 -124 -65 -233t-178.5 -174.5t-246.5 -65.5h-555v455h531q13 0 20.5 7.5t7.5 18.5t-7.5 19t-20.5 8h-123 q-199 0 -335 125.5t-136 316.5zM313 1661v297l273 -119l276 119v-297l-274 -125z" />
<glyph unicode="&#x161;" d="M35 950q0 129 61 240t170 177.5t240 66.5h481v-437h-450q-12 0 -19.5 -6.5t-7.5 -17.5t7.5 -18t19.5 -7h116q135 0 247.5 -61.5t177.5 -170.5t65 -243q0 -124 -65 -233t-178.5 -174.5t-246.5 -65.5h-555v455h531q13 0 20.5 7.5t7.5 18.5t-7.5 19t-20.5 8h-123 q-199 0 -335 125.5t-136 316.5zM313 1661v297l273 -119l276 119v-297l-274 -125z" />
<glyph unicode="&#x162;" horiz-adv-x="1187" d="M57 985v449h1071v-449h-288v-985h-97l-163 -391h-318l168 391h-82v985h-291z" />
<glyph unicode="&#x163;" horiz-adv-x="1187" d="M57 985v449h1071v-449h-288v-985h-97l-163 -391h-318l168 391h-82v985h-291z" />
<glyph unicode="&#x164;" horiz-adv-x="1187" d="M57 985v449h1071v-449h-288v-985h-492v985h-291zM319 1661v297l273 -119l276 119v-297l-274 -125z" />
<glyph unicode="&#x165;" horiz-adv-x="1187" d="M57 985v449h1071v-449h-288v-985h-492v985h-291zM319 1661v297l273 -119l276 119v-297l-274 -125z" />
<glyph unicode="&#x166;" horiz-adv-x="1187" d="M57 985v449h1071v-449h-288v-199h184v-278h-184v-508h-492v508h-186v278h186v199h-291z" />
<glyph unicode="&#x167;" horiz-adv-x="1185" d="M57 985v449h1071v-449h-288v-199h184v-278h-184v-508h-492v508h-186v278h186v199h-291z" />
<glyph unicode="&#x168;" horiz-adv-x="1306" d="M102 504v930h492v-924q0 -25 17 -42t42 -17t42.5 17t17.5 42v924h491v-930q0 -160 -73.5 -282.5t-197.5 -186.5t-278 -64q-153 0 -278 64t-200 186.5t-75 282.5zM270 1655q28 74 78 123t98.5 66.5t98.5 17.5q40 0 94.5 -16.5t83.5 -16.5q57 0 84 55l229 -141 q-28 -74 -77.5 -123t-98 -66.5t-98.5 -17.5q-35 0 -93 16.5t-85 16.5q-57 0 -84 -56z" />
<glyph unicode="&#x169;" horiz-adv-x="1306" d="M102 504v930h492v-924q0 -25 17 -42t42 -17t42.5 17t17.5 42v924h491v-930q0 -160 -73.5 -282.5t-197.5 -186.5t-278 -64q-153 0 -278 64t-200 186.5t-75 282.5zM270 1655q28 74 78 123t98.5 66.5t98.5 17.5q40 0 94.5 -16.5t83.5 -16.5q57 0 84 55l229 -141 q-28 -74 -77.5 -123t-98 -66.5t-98.5 -17.5q-35 0 -93 16.5t-85 16.5q-57 0 -84 -56z" />
<glyph unicode="&#x16a;" horiz-adv-x="1306" d="M102 504v930h492v-924q0 -25 17 -42t42 -17t42.5 17t17.5 42v924h491v-930q0 -160 -73.5 -282.5t-197.5 -186.5t-278 -64q-153 0 -278 64t-200 186.5t-75 282.5zM342 1536v279h623v-279h-623z" />
<glyph unicode="&#x16b;" horiz-adv-x="1306" d="M102 504v930h492v-924q0 -25 17 -42t42 -17t42.5 17t17.5 42v924h491v-930q0 -160 -73.5 -282.5t-197.5 -186.5t-278 -64q-153 0 -278 64t-200 186.5t-75 282.5zM344 1536v279h623v-279h-623z" />
<glyph unicode="&#x16c;" horiz-adv-x="1306" d="M102 504v930h492v-924q0 -25 17 -42t42 -17t42.5 17t17.5 42v924h491v-930q0 -160 -73.5 -282.5t-197.5 -186.5t-278 -64q-153 0 -278 64t-200 186.5t-75 282.5zM319 1845h316v-57q0 -8 5.5 -13.5t12.5 -5.5t13 5.5t6 13.5v57h315q0 -163 -90.5 -236t-243.5 -73 t-243.5 73t-90.5 236z" />
<glyph unicode="&#x16d;" horiz-adv-x="1306" d="M102 504v930h492v-924q0 -25 17 -42t42 -17t42.5 17t17.5 42v924h491v-930q0 -160 -73.5 -282.5t-197.5 -186.5t-278 -64q-153 0 -278 64t-200 186.5t-75 282.5zM319 1845h316v-57q0 -8 5.5 -13.5t12.5 -5.5t13 5.5t6 13.5v57h315q0 -163 -90.5 -236t-243.5 -73 t-243.5 73t-90.5 236z" />
<glyph unicode="&#x16e;" horiz-adv-x="1306" d="M102 504v930h492v-924q0 -25 17 -42t42 -17t42.5 17t17.5 42v924h491v-930q0 -160 -73.5 -282.5t-197.5 -186.5t-278 -64q-153 0 -278 64t-200 186.5t-75 282.5zM420 1765q0 97 68.5 164.5t166.5 67.5q97 0 164.5 -67.5t67.5 -164.5q0 -95 -67.5 -162t-164.5 -67 q-98 0 -166.5 67t-68.5 162zM594 1765q0 -23 17 -40t44 -17q25 0 42.5 17t17.5 40q0 24 -17 42t-43 18q-27 0 -44 -18t-17 -42z" />
<glyph unicode="&#x16f;" horiz-adv-x="1306" d="M102 504v930h492v-924q0 -25 17 -42t42 -17t42.5 17t17.5 42v924h491v-930q0 -160 -73.5 -282.5t-197.5 -186.5t-278 -64q-153 0 -278 64t-200 186.5t-75 282.5zM420 1765q0 97 68.5 164.5t166.5 67.5q97 0 164.5 -67.5t67.5 -164.5q0 -95 -67.5 -162t-164.5 -67 q-98 0 -166.5 67t-68.5 162zM594 1765q0 -23 17 -40t44 -17q25 0 42.5 17t17.5 40q0 24 -17 42t-43 18q-27 0 -44 -18t-17 -42z" />
<glyph unicode="&#x170;" horiz-adv-x="1306" d="M102 504v930h492v-924q0 -25 17 -42t42 -17t42.5 17t17.5 42v924h491v-930q0 -160 -73.5 -282.5t-197.5 -186.5t-278 -64q-153 0 -278 64t-200 186.5t-75 282.5zM272 1536l113 344h385l-235 -344h-263zM690 1536l113 344h385l-236 -344h-262z" />
<glyph unicode="&#x171;" horiz-adv-x="1306" d="M102 504v930h492v-924q0 -25 17 -42t42 -17t42.5 17t17.5 42v924h491v-930q0 -160 -73.5 -282.5t-197.5 -186.5t-278 -64q-153 0 -278 64t-200 186.5t-75 282.5zM272 1536l113 344h385l-235 -344h-263zM690 1536l113 344h385l-236 -344h-262z" />
<glyph unicode="&#x172;" horiz-adv-x="1306" d="M102 504v930h492v-924q0 -25 17 -42t42 -17t42.5 17t17.5 42v924h491v-930q0 -254 -184 -410q-113 -97 -113 -186q0 -46 27 -74.5t74 -28.5v-254q-184 0 -274.5 63.5t-90.5 182.5q0 101 96 180q-41 -6 -84 -6q-153 0 -278 64t-200 186.5t-75 282.5z" />
<glyph unicode="&#x173;" horiz-adv-x="1306" d="M102 504v930h492v-924q0 -25 17 -42t42 -17t42.5 17t17.5 42v924h491v-930q0 -254 -184 -410q-113 -97 -113 -186q0 -46 27 -74.5t74 -28.5v-254q-184 0 -274.5 63.5t-90.5 182.5q0 101 96 180q-41 -6 -84 -6q-153 0 -278 64t-200 186.5t-75 282.5z" />
<glyph unicode="&#x174;" horiz-adv-x="1841" d="M-8 1434h370l336 -672l21 39l-316 633h463l246 -488l209 488h528l-735 -1479l-194 379l-191 -377zM645 1536v297l275 125l274 -125v-297l-276 119z" />
<glyph unicode="&#x175;" horiz-adv-x="1841" d="M-8 1434h370l336 -672l21 39l-316 633h463l246 -488l209 488h528l-735 -1479l-194 379l-191 -377zM645 1536v297l275 125l274 -125v-297l-276 119z" />
<glyph unicode="&#x176;" horiz-adv-x="1452" d="M-8 1434h557l174 -369l184 369h551l-487 -844v-590h-490v590zM451 1516v296l274 125l274 -125v-296l-276 118z" />
<glyph unicode="&#x177;" horiz-adv-x="1452" d="M-8 1434h557l174 -369l184 369h551l-487 -844v-590h-490v590zM451 1536v297l274 125l274 -125v-297l-276 119z" />
<glyph unicode="&#x178;" horiz-adv-x="1452" d="M-8 1434h557l174 -369l184 369h551l-487 -844v-590h-490v590zM311 1729q0 78 56 133t135 55q77 0 132.5 -55t55.5 -133q0 -79 -55.5 -136t-132.5 -57q-79 0 -135 56.5t-56 136.5zM760 1729q0 78 55.5 133t134.5 55q77 0 134 -55.5t57 -132.5q0 -79 -57 -136t-134 -57 q-79 0 -134.5 56.5t-55.5 136.5z" />
<glyph unicode="&#x179;" horiz-adv-x="1333" d="M63 0l443 983h-377v451h1147l-440 -985h409v-449h-1182zM469 1536l193 344h428l-340 -344h-281z" />
<glyph unicode="&#x17a;" horiz-adv-x="1331" d="M63 0l443 983h-377v451h1147l-440 -985h409v-449h-1182zM469 1536l193 344h428l-340 -344h-281z" />
<glyph unicode="&#x17b;" horiz-adv-x="1333" d="M63 0l443 983h-377v451h1147l-440 -985h409v-449h-1182zM522 1720q0 75 56 129t133 54q74 0 129 -54t55 -129q0 -79 -53.5 -131.5t-130.5 -52.5q-80 0 -134.5 52.5t-54.5 131.5z" />
<glyph unicode="&#x17c;" horiz-adv-x="1333" d="M63 0l443 983h-377v451h1147l-440 -985h409v-449h-1182zM522 1720q0 75 56 129t133 54q74 0 129 -54t55 -129q0 -79 -53.5 -131.5t-130.5 -52.5q-80 0 -134.5 52.5t-54.5 131.5z" />
<glyph unicode="&#x17d;" horiz-adv-x="1333" d="M63 0l443 983h-377v451h1147l-440 -985h409v-449h-1182zM424 1661v297l272 -119l277 119v-297l-275 -125z" />
<glyph unicode="&#x17e;" horiz-adv-x="1333" d="M63 0l443 983h-377v451h1147l-440 -985h409v-449h-1182zM424 1661v297l272 -119l277 119v-297l-275 -125z" />
<glyph unicode="&#x192;" horiz-adv-x="874" d="M43 522v389h107v86q0 186 130.5 311.5t321.5 125.5h229v-418h-206q-20 0 -32.5 -14t-12.5 -33v-58h194v-389h-194v-678h-430v678h-107z" />
<glyph unicode="&#x1e2;" horiz-adv-x="1779" d="M-25 0l734 1434h966v-439h-714l59 -114h637v-310h-506l66 -127h464v-444h-766l-34 88h-342l-35 -88h-529zM621 328h170l-82 211zM731 1536v279h623v-279h-623z" />
<glyph unicode="&#x1e3;" horiz-adv-x="1779" d="M-25 0l734 1434h966v-439h-714l59 -114h637v-310h-506l66 -127h464v-444h-766l-34 88h-342l-35 -88h-529zM621 328h170l-82 211zM731 1536v279h623v-279h-623z" />
<glyph unicode="&#x1fa;" horiz-adv-x="1421" d="M-25 0l631 1262q-59 28 -95 83.5t-36 122.5q0 73 41.5 133t108.5 85l114 202h428l-274 -278q49 -62 49 -142q0 -68 -35.5 -123t-95.5 -83l635 -1262h-531l-34 88h-342l-35 -88h-529zM621 328h170l-82 211zM649 1468q0 -23 17.5 -40t44.5 -17q25 0 42 17t17 40 q0 24 -17 42t-42 18q-27 0 -44.5 -18t-17.5 -42z" />
<glyph unicode="&#x1fb;" horiz-adv-x="1421" d="M-25 0l631 1262q-59 28 -95 83.5t-36 122.5q0 73 41.5 133t108.5 85l114 202h428l-274 -278q49 -62 49 -142q0 -68 -35.5 -123t-95.5 -83l635 -1262h-531l-34 88h-342l-35 -88h-529zM621 328h170l-82 211zM649 1468q0 -23 17.5 -40t44.5 -17q25 0 42 17t17 40 q0 24 -17 42t-42 18q-27 0 -44.5 -18t-17.5 -42z" />
<glyph unicode="&#x1fc;" horiz-adv-x="1779" d="M-25 0l734 1434h966v-439h-714l59 -114h637v-310h-506l66 -127h464v-444h-766l-34 88h-342l-35 -88h-529zM621 328h170l-82 211zM776 1536l193 344h428l-340 -344h-281z" />
<glyph unicode="&#x1fd;" horiz-adv-x="1779" d="M-25 0l734 1434h966v-439h-714l59 -114h637v-310h-506l66 -127h464v-444h-766l-34 88h-342l-35 -88h-529zM621 328h170l-82 211zM776 1536l193 344h428l-340 -344h-281z" />
<glyph unicode="&#x1fe;" horiz-adv-x="1593" d="M35 715q0 155 61 293.5t163.5 236.5t243 155.5t294.5 57.5q248 0 450 -143l115 112l160 -159l-111 -111q148 -195 148 -442q0 -207 -103.5 -378.5t-278 -268.5t-380.5 -97q-251 0 -451 142l-108 -107l-160 160l104 104q-147 197 -147 445zM553 715q0 -41 8 -72l313 307 q-41 13 -77 13q-105 0 -174.5 -71t-69.5 -177zM584 1536l192 344h428l-340 -344h-280zM719 477q38 -10 78 -10q105 0 174 71t69 177q0 31 -10 69z" />
<glyph unicode="&#x1ff;" horiz-adv-x="1593" d="M35 715q0 155 61 293.5t163.5 236.5t243 155.5t294.5 57.5q248 0 450 -143l115 112l160 -159l-111 -111q148 -195 148 -442q0 -207 -103.5 -378.5t-278 -268.5t-380.5 -97q-251 0 -451 142l-108 -107l-160 160l104 104q-147 197 -147 445zM553 715q0 -41 8 -72l313 307 q-41 13 -77 13q-105 0 -174.5 -71t-69.5 -177zM584 1536l192 344h428l-340 -344h-280zM719 477q38 -10 78 -10q105 0 174 71t69 177q0 31 -10 69z" />
<glyph unicode="&#x218;" d="M35 950q0 129 61 240t170 177.5t240 66.5h481v-437h-450q-12 0 -19.5 -6.5t-7.5 -17.5t7.5 -18t19.5 -7h116q135 0 247.5 -61.5t177.5 -170.5t65 -243q0 -124 -65 -233t-178.5 -174.5t-246.5 -65.5h-555v455h531q13 0 20.5 7.5t7.5 18.5t-7.5 19t-20.5 8h-123 q-199 0 -335 125.5t-136 316.5zM336 -537l59 402h447l-252 -402h-254z" />
<glyph unicode="&#x219;" d="M35 950q0 129 61 240t170 177.5t240 66.5h481v-437h-450q-12 0 -19.5 -6.5t-7.5 -17.5t7.5 -18t19.5 -7h116q135 0 247.5 -61.5t177.5 -170.5t65 -243q0 -124 -65 -233t-178.5 -174.5t-246.5 -65.5h-555v455h531q13 0 20.5 7.5t7.5 18.5t-7.5 19t-20.5 8h-123 q-199 0 -335 125.5t-136 316.5zM336 -537l59 402h447l-252 -402h-254z" />
<glyph unicode="&#x21a;" horiz-adv-x="1187" d="M57 985v449h1071v-449h-288v-985h-492v985h-291zM319 -537l60 402h446l-252 -402h-254z" />
<glyph unicode="&#x21b;" horiz-adv-x="1187" d="M57 985v449h1071v-449h-288v-985h-492v985h-291zM317 -537l60 402h446l-252 -402h-254z" />
<glyph unicode="&#x2c6;" horiz-adv-x="749" d="M100 1106v297l275 125l274 -125v-297l-276 119z" />
<glyph unicode="&#x2c7;" horiz-adv-x="749" d="M100 1231v297l273 -119l276 119v-297l-274 -125z" />
<glyph unicode="&#x2d8;" horiz-adv-x="792" d="M61 1343h316v-57q0 -8 5.5 -13t12.5 -5q8 0 13.5 5.5t5.5 12.5v57h315q0 -163 -90.5 -236t-243.5 -73t-243.5 73t-90.5 236z" />
<glyph unicode="&#x2d9;" horiz-adv-x="442" d="M35 1180q0 75 55.5 128.5t132.5 53.5q74 0 129.5 -54t55.5 -128q0 -79 -54 -132t-131 -53q-80 0 -134 53t-54 132z" />
<glyph unicode="&#x2da;" horiz-adv-x="620" d="M74 1235q0 97 68.5 164t166.5 67q97 0 164.5 -67t67.5 -164q0 -95 -67.5 -162t-164.5 -67q-98 0 -166.5 67t-68.5 162zM248 1235q0 -23 17 -40t44 -17q25 0 42.5 17t17.5 40q0 24 -17 41.5t-43 17.5q-27 0 -44 -17.5t-17 -41.5z" />
<glyph unicode="&#x2db;" horiz-adv-x="514" d="M74 -203q0 60 35.5 115t91.5 88h235q-49 -18 -73.5 -49t-24.5 -64q0 -82 100 -82v-254q-364 0 -364 246z" />
<glyph unicode="&#x2dc;" horiz-adv-x="841" d="M37 1169q28 74 77.5 123t98 66.5t98.5 17.5q40 0 94.5 -16.5t83.5 -16.5q57 0 84 56l230 -142q-21 -56 -54.5 -98t-72 -64.5t-75.5 -33t-73 -10.5q-35 0 -93 16t-85 16q-57 0 -84 -55z" />
<glyph unicode="&#x2dd;" horiz-adv-x="1017" d="M51 1044l113 345h385l-236 -345h-262zM469 1044l113 345h385l-236 -345h-262z" />
<glyph unicode="&#x1e80;" horiz-adv-x="1841" d="M-8 1434h370l336 -672l21 39l-316 633h463l246 -488l209 488h528l-735 -1479l-194 379l-191 -377zM506 1880h428l192 -344h-280z" />
<glyph unicode="&#x1e81;" horiz-adv-x="1841" d="M-8 1434h370l336 -672l21 39l-316 633h463l246 -488l209 488h528l-735 -1479l-194 379l-191 -377zM506 1880h428l192 -344h-280z" />
<glyph unicode="&#x1e82;" horiz-adv-x="1841" d="M-8 1434h370l336 -672l21 39l-316 633h463l246 -488l209 488h528l-735 -1479l-194 379l-191 -377zM676 1536l192 344h428l-340 -344h-280z" />
<glyph unicode="&#x1e83;" horiz-adv-x="1841" d="M-8 1434h370l336 -672l21 39l-316 633h463l246 -488l209 488h528l-735 -1479l-194 379l-191 -377zM676 1536l192 344h428l-340 -344h-280z" />
<glyph unicode="&#x1e84;" horiz-adv-x="1841" d="M-8 1434h370l336 -672l21 39l-316 633h463l246 -488l209 488h528l-735 -1479l-194 379l-191 -377zM506 1729q0 78 55.5 133t134.5 55q77 0 133 -55t56 -133q0 -79 -56 -136t-133 -57q-79 0 -134.5 56.5t-55.5 136.5zM954 1729q0 78 56 133t135 55q77 0 133.5 -55.5 t56.5 -132.5q0 -79 -56.5 -136t-133.5 -57q-79 0 -135 56.5t-56 136.5z" />
<glyph unicode="&#x1e85;" horiz-adv-x="1841" d="M-8 1434h370l336 -672l21 39l-316 633h463l246 -488l209 488h528l-735 -1479l-194 379l-191 -377zM506 1729q0 78 55.5 133t134.5 55q77 0 133 -55t56 -133q0 -79 -56 -136t-133 -57q-79 0 -134.5 56.5t-55.5 136.5zM954 1729q0 78 56 133t135 55q77 0 133.5 -55.5 t56.5 -132.5q0 -79 -56.5 -136t-133.5 -57q-79 0 -135 56.5t-56 136.5z" />
<glyph unicode="&#x1ef2;" horiz-adv-x="1452" d="M-8 1434h557l174 -369l184 369h551l-487 -844v-590h-490v590zM287 1880h428l192 -344h-280z" />
<glyph unicode="&#x1ef3;" horiz-adv-x="1452" d="M-8 1434h557l174 -369l184 369h551l-487 -844v-590h-490v590zM287 1880h428l192 -344h-280z" />
<glyph unicode="&#x2000;" horiz-adv-x="998" />
<glyph unicode="&#x2001;" horiz-adv-x="1997" />
<glyph unicode="&#x2002;" horiz-adv-x="998" />
<glyph unicode="&#x2003;" horiz-adv-x="1997" />
<glyph unicode="&#x2004;" horiz-adv-x="665" />
<glyph unicode="&#x2005;" horiz-adv-x="499" />
<glyph unicode="&#x2006;" horiz-adv-x="332" />
<glyph unicode="&#x2007;" horiz-adv-x="332" />
<glyph unicode="&#x2008;" horiz-adv-x="249" />
<glyph unicode="&#x2009;" horiz-adv-x="399" />
<glyph unicode="&#x200a;" horiz-adv-x="110" />
<glyph unicode="&#x2010;" horiz-adv-x="768" d="M51 541v317h664v-317h-664z" />
<glyph unicode="&#x2011;" horiz-adv-x="768" d="M51 541v317h664v-317h-664z" />
<glyph unicode="&#x2012;" horiz-adv-x="768" d="M51 541v317h664v-317h-664z" />
<glyph unicode="&#x2013;" horiz-adv-x="1112" d="M51 541v317h1010v-317h-1010z" />
<glyph unicode="&#x2014;" horiz-adv-x="2129" d="M51 541v317h2028v-317h-2028z" />
<glyph unicode="&#x2018;" horiz-adv-x="698" d="M70 1434h499l60 -584h-307z" />
<glyph unicode="&#x2019;" horiz-adv-x="698" d="M70 850l59 584h500l-252 -584h-307z" />
<glyph unicode="&#x201a;" horiz-adv-x="698" d="M70 -225l59 583h500l-252 -583h-307z" />
<glyph unicode="&#x201c;" horiz-adv-x="1239" d="M70 1434h499l60 -584h-307zM610 1434h500l59 -584h-307z" />
<glyph unicode="&#x201d;" horiz-adv-x="1239" d="M70 850l59 584h500l-252 -584h-307zM610 850l60 584h499l-251 -584h-308z" />
<glyph unicode="&#x201e;" horiz-adv-x="1239" d="M70 -225l59 583h500l-252 -583h-307zM610 -225l60 583h499l-251 -583h-308z" />
<glyph unicode="&#x2020;" horiz-adv-x="931" d="M39 643v369h231v422h385v-422h236v-369h-236v-1008h-385v1008h-231z" />
<glyph unicode="&#x2021;" horiz-adv-x="925" d="M39 57v369h231v217h-231v369h231v422h385v-422h236v-369h-236v-217h236v-369h-236v-422h-385v422h-231z" />
<glyph unicode="&#x2022;" horiz-adv-x="796" d="M102 748q0 121 87 206.5t210 85.5t209 -85t86 -207t-86 -207.5t-209 -85.5t-210 86t-87 207z" />
<glyph unicode="&#x2026;" horiz-adv-x="1822" d="M66 221q0 104 73 177t187 73q104 0 178 -74t74 -176t-74 -175t-178 -73q-115 0 -187.5 72t-72.5 176zM655 221q0 104 73 177t187 73q104 0 178 -74t74 -176t-74 -175t-178 -73q-115 0 -187.5 72t-72.5 176zM1245 221q0 104 73 177t187 73q104 0 178 -74t74 -176t-74 -175 t-178 -73q-115 0 -187.5 72t-72.5 176z" />
<glyph unicode="&#x202f;" horiz-adv-x="399" />
<glyph unicode="&#x2030;" horiz-adv-x="2418" d="M35 1110q0 144 102 246t244 102q143 0 245.5 -102t102.5 -246q0 -142 -102.5 -244t-245.5 -102q-141 0 -243.5 102t-102.5 244zM221 0l844 1434h399l-841 -1434h-402zM944 317q0 144 102 246.5t244 102.5q143 0 245.5 -102.5t102.5 -246.5q0 -142 -102.5 -244 t-245.5 -102q-141 0 -243.5 102t-102.5 244zM1690 317q0 144 102 246.5t244 102.5q143 0 245.5 -102.5t102.5 -246.5q0 -142 -102.5 -244t-245.5 -102q-141 0 -243.5 102t-102.5 244z" />
<glyph unicode="&#x2039;" horiz-adv-x="720" d="M37 719l239 430h408l-233 -430l233 -432h-408z" />
<glyph unicode="&#x203a;" horiz-adv-x="720" d="M37 287l233 432l-233 430h407l240 -430l-240 -432h-407z" />
<glyph unicode="&#x2044;" horiz-adv-x="888" d="M-72 -188l615 1812h420l-619 -1812h-416z" />
<glyph unicode="&#x205f;" horiz-adv-x="499" />
<glyph unicode="&#x20ac;" horiz-adv-x="1349" d="M76 555v319h117q38 167 145 300.5t264.5 208.5t335.5 75q187 0 319 -74v-522q-109 131 -288 131q-79 0 -142.5 -32t-101.5 -87h336v-319h-336q38 -56 101.5 -88.5t142.5 -32.5q94 0 162.5 35t125.5 104v-528q-132 -74 -319 -74q-179 0 -336 74.5t-264 208t-145 301.5 h-117z" />
<glyph unicode="&#x2122;" horiz-adv-x="1083" d="M49 1286v148h387v-148h-114v-350h-158v350h-115zM430 936l117 516l184 -285l187 285l116 -516h-160l-30 145l-113 -168l-113 166l-30 -143h-158z" />
<glyph unicode="&#x2212;" horiz-adv-x="1058" d="M0 553v317h1059v-317h-1059z" />
<glyph unicode="&#x2260;" horiz-adv-x="1058" d="M0 354v320h377l61 63h-438v318h739l160 168l125 -125l-41 -43h76v-318h-379l-59 -63h438v-320h-742l-161 -170l-125 125l43 45h-74z" />
<glyph unicode="&#x25fc;" horiz-adv-x="1433" d="M0 0v1434h1434v-1434h-1434z" />
<glyph unicode="&#xf6c3;" horiz-adv-x="634" d="M63 -537l60 402h446l-252 -402h-254z" />
<glyph horiz-adv-x="1236" d="M47 0v498q30 0 55 2.5t47.5 9.5t40 12.5t35.5 20t29.5 22.5t27 29.5t23.5 32t23.5 39t22 40.5t24.5 46l135 262q41 78 83 137.5t101.5 114.5t128.5 90.5t162 56.5t205 21v-498q-64 0 -115.5 -19.5t-90.5 -58.5t-65 -77.5t-57 -96.5l-141 -270q-43 -82 -81 -138.5 t-95 -112.5t-123 -89t-161 -53.5t-214 -20.5z" />
<glyph horiz-adv-x="1968" d="M57 985v449h1852v-449h-289v-985h-492v985h-288v-985h-492v985h-291z" />
<glyph horiz-adv-x="716" d="M102 1208q0 104 73 177t187 73q104 0 178 -74t74 -176q0 -101 -74 -174t-178 -73q-115 0 -187.5 71.5t-72.5 175.5zM113 0v926h491v-926h-491z" />
<glyph horiz-adv-x="1187" d="M41 922q0 152 74 275.5t200.5 192t278.5 68.5t278.5 -68.5t200.5 -192t74 -275.5t-74 -276t-200.5 -192.5t-278.5 -68.5t-278.5 68.5t-200.5 192.5t-74 276zM96 0v322h994v-322h-994zM465 922q0 -57 37 -93t92 -36t92 36t37 93t-37 93t-92 36t-92 -36t-37 -93z" />
<glyph horiz-adv-x="1388" d="M113 0v1434h491v-1090h557v-344h-1048zM672 446v988h348v-676h336v-312h-684z" />
<glyph horiz-adv-x="2394" d="M57 985v449h1520v-506h213v506h491v-1434h-491v508h-213v-508h-492v985h-245v-985h-492v985h-291z" />
<glyph horiz-adv-x="2885" d="M57 985v449h1551v-506h213v506h960v-439h-469v-114h451v-310h-451v-127h475v-444h-966v508h-213v-508h-492v985h-276v-985h-492v985h-291z" />
<glyph horiz-adv-x="2181" d="M57 985v449h2020v-439h-469v-114h450v-310h-450v-127h475v-444h-967v985h-276v-985h-492v985h-291z" />
<glyph horiz-adv-x="1882" d="M113 0v1434h491v-506h213v506h961v-439h-469v-114h450v-310h-450v-127h475v-444h-967v508h-213v-508h-491z" />
<glyph horiz-adv-x="2351" d="M57 985v449h1639q169 0 305 -71t214.5 -201.5t78.5 -297.5q0 -119 -62.5 -217t-128.5 -135q176 -105 176 -338v-174h-479v152q0 71 -47.5 111t-110.5 40h-34v-303h-492v985h-276v-985h-492v985h-291zM1608 735h57q56 0 92.5 34.5t36.5 88.5t-36.5 89.5t-92.5 35.5h-57 v-248z" />
<glyph horiz-adv-x="2283" d="M57 985v449h1323l174 -369l185 369h551l-488 -844v-590h-489v590l-230 395h-243v-985h-492v985h-291z" />
<glyph horiz-adv-x="1765" d="M-12 0l895 1475l895 -1475h-537l-53 88h-610l-54 -88h-536zM715 356h334l-166 293z" />
<glyph horiz-adv-x="2746" d="M57 985v449h1211l336 -672l20 39l-315 633h463l245 -488l209 488h529l-736 -1479l-194 379l-191 -377l-514 1028h-280v-985h-492v985h-291z" />
<glyph horiz-adv-x="1773" d="M-8 1434h536l359 -643l358 643h537l-895 -1465z" />
<glyph horiz-adv-x="1638" d="M113 0v1434h491v-1090h557v-344h-1048zM645 434l508 1022l508 -1022h-387l-19 45h-204l-19 -45h-387zM1104 643h98l-49 123z" />
<glyph horiz-adv-x="1896" d="M49 934q0 144 71 265t193.5 191t268.5 70t268.5 -70t193 -191t70.5 -265t-70.5 -265t-193 -191t-268.5 -70t-268.5 70t-193.5 191t-71 265zM117 0v322h1685v-322h-1685zM442 934q0 -59 41 -100t99 -41t98.5 40.5t40.5 100.5t-40.5 100.5t-98.5 40.5t-99 -41t-41 -100z M1163 412v1022h676v-342h-297v-134h281v-280h-281v-266h-379z" />
<glyph horiz-adv-x="3362" d="M82 393l580 1063l579 -1063h-428l-27 60h-249l-27 -60h-428zM104 0v322h3134v-322h-3134zM584 592h155l-77 186zM1288 393v1041h271l282 -254v254h367v-1074l-551 519v-486h-369zM2300 393v1041h444q151 0 277 -67t200 -187.5t74 -268.5t-74 -267.5t-199.5 -185 t-277.5 -65.5h-444zM2673 737h49q72 0 124 51t52 123t-52 123t-124 51h-49v-348z" />
<glyph horiz-adv-x="1402" d="M113 0v1434h491v-1090h557v-344h-1048zM688 446v988h655v-306h-321v-65h303v-244h-303v-69h326v-304h-660z" />
<glyph horiz-adv-x="1216" d="M113 0v1434h491v-1090h557v-344h-1048zM739 446v988h375v-988h-375z" />
<glyph horiz-adv-x="1742" d="M113 0v1434h491v-1090h557v-344h-1048zM696 936q0 148 72 268.5t195 187t270 66.5q148 0 271.5 -66.5t195.5 -187t72 -268.5q0 -147 -72 -267t-195.5 -186.5t-271.5 -66.5q-147 0 -270 66.5t-195 186.5t-72 267zM1094 936q0 -61 40 -100t99 -39t100 39t41 100 q0 62 -40.5 101.5t-100.5 39.5q-59 0 -99 -39.5t-40 -101.5z" />
<glyph horiz-adv-x="2598" d="M35 715q0 155 61 293.5t163.5 236.5t243 155.5t294.5 57.5q149 0 277 -53.5t224 -151.5q96 98 224.5 151.5t279.5 53.5q154 0 294.5 -57.5t243 -155.5t163.5 -236.5t61 -293.5q0 -207 -103.5 -378.5t-278 -268.5t-380.5 -97q-151 0 -279.5 53.5t-224.5 151.5 q-96 -98 -224 -151.5t-277 -53.5q-206 0 -380.5 97t-278 268.5t-103.5 378.5zM553 715q0 -106 69.5 -177t174.5 -71t174 71t69 177t-69 177t-174 71t-174.5 -71t-69.5 -177zM1559 715q0 -106 69 -177t174 -71t174.5 71t69.5 177t-69.5 177t-174.5 71t-174 -71t-69 -177z" />
<glyph horiz-adv-x="1765" d="M-12 0l895 1475l895 -1475h-537l-53 88h-610l-54 -88h-536zM469 1729q0 78 55.5 133t134.5 55q77 0 133 -55t56 -133q0 -79 -56 -136t-133 -57q-79 0 -134.5 56.5t-55.5 136.5zM715 356h334l-166 293zM918 1729q0 78 55.5 133t134.5 55q77 0 133.5 -55.5t56.5 -132.5 q0 -79 -56.5 -136t-133.5 -57q-79 0 -134.5 56.5t-55.5 136.5z" />
<glyph horiz-adv-x="1765" d="M-12 0l895 1475l895 -1475h-537l-53 88h-610l-54 -88h-536zM651 1765q0 97 69 164.5t167 67.5q97 0 164 -67.5t67 -164.5q0 -95 -67 -162t-164 -67q-98 0 -167 67t-69 162zM715 356h334l-166 293zM825 1765q0 -23 17.5 -40t44.5 -17q25 0 42 17t17 40q0 24 -17 42t-42 18 q-27 0 -44.5 -18t-17.5 -42z" />
<glyph horiz-adv-x="1765" d="M-12 0l895 1475l895 -1475h-537l-53 88h-610l-54 -88h-536zM420 1880h428l192 -344h-280zM715 356h334l-166 293z" />
<glyph horiz-adv-x="1765" d="M-12 0l895 1475l895 -1475h-537l-53 88h-610l-54 -88h-536zM500 1655q28 74 77.5 123t98 66.5t98.5 17.5q40 0 94.5 -16.5t83.5 -16.5q57 0 84 55l230 -141q-28 -74 -78 -123t-98.5 -66.5t-98.5 -17.5q-35 0 -93 16.5t-85 16.5q-57 0 -84 -56zM715 356h334l-166 293z" />
<glyph horiz-adv-x="1765" d="M-12 0l895 1475l895 -1475h-537l-53 88h-610l-54 -88h-536zM610 1536v297l275 125l274 -125v-297l-276 119zM715 356h334l-166 293z" />
<glyph horiz-adv-x="1765" d="M-12 0l895 1475l895 -1475h-537l-53 88h-610l-54 -88h-536zM694 1536l193 344h428l-340 -344h-281zM715 356h334l-166 293z" />
<glyph horiz-adv-x="2189" d="M113 0v1434h397l367 -375v375h475v-1502l-760 766v-698h-479zM1456 1133q0 135 98 230t240 95t239 -94.5t97 -230.5q0 -135 -97.5 -230.5t-238.5 -95.5q-142 0 -240 96t-98 230zM1481 389v332h626v-332h-626z" />
<glyph horiz-adv-x="1699" d="M59 522v352h756l-242 115l189 318l878 -609l-878 -608l-189 318l242 114h-756z" />
<glyph horiz-adv-x="1699" d="M59 698l879 609l188 -318l-241 -115h755v-352h-755l241 -114l-188 -318z" />
<glyph horiz-adv-x="1294" d="M39 702l608 879l608 -879l-317 -188l-115 242v-756h-352v756l-115 -242z" />
<glyph horiz-adv-x="1294" d="M39 750l317 188l115 -242v756h352v-756l115 242l317 -188l-608 -879z" />
<glyph horiz-adv-x="964" d="M182 721l299 297l301 -297l-301 -295z" />
<glyph d="M113 0v1434h960v-439h-469v-192h451v-309h-451v-50h475v-444h-966z" />
<glyph d="M113 0v1434h960v-439h-469v-192h451v-309h-451v-50h475v-444h-966zM174 1729q0 78 56 133t135 55q77 0 132.5 -55t55.5 -133q0 -79 -55.5 -136t-132.5 -57q-79 0 -135 56.5t-56 136.5zM623 1729q0 78 55.5 133t134.5 55q77 0 134 -55.5t57 -132.5q0 -79 -57 -136 t-134 -57q-79 0 -134.5 56.5t-55.5 136.5z" />
<glyph d="M113 0v1434h960v-439h-469v-192h451v-309h-451v-50h475v-444h-966zM211 1880h428l192 -344h-280z" />
<glyph d="M113 0v1434h960v-439h-469v-192h451v-309h-451v-50h475v-444h-966zM354 1536l193 344h428l-340 -344h-281z" />
<glyph d="M113 0v1434h960v-439h-469v-192h451v-309h-451v-50h475v-444h-966zM313 1536v297l275 125l274 -125v-297l-276 119z" />
<glyph horiz-adv-x="1189" d="M113 0v1434h960v-439h-469v-311h451v-330h-451v-354h-491z" />
<glyph horiz-adv-x="2228" d="M113 0v1434h397l367 -373v373h397l366 -373v373h476v-1502l-764 760v-760l-760 756v-688h-479z" />
<glyph horiz-adv-x="2293" d="M113 0v1434h491v-1106h469v-328h-960zM670 369l278 1095l488 -733l485 733l315 -1464h-483l-76 430l-241 -473l-316 473l-16 -61h-434z" />
<glyph horiz-adv-x="2527" d="M113 0v1434h671q260 0 449 -179q200 203 500 203q206 0 380.5 -97t277.5 -268t103 -378q0 -155 -61 -293.5t-163.5 -237t-242.5 -156t-294 -57.5q-301 0 -498 203q-187 -174 -451 -174h-671zM604 449h107q111 0 189.5 77t78.5 189q0 113 -78.5 190.5t-189.5 77.5h-107 v-534zM1489 715q0 -106 69.5 -177t174.5 -71t174 71t69 177t-69 177t-174 71t-174.5 -71t-69.5 -177z" />
<glyph horiz-adv-x="1564" d="M113 0v1434h491v-1106h557v-328h-1048zM729 795v639h348v-650q0 -12 9.5 -21t21.5 -9t21.5 9t9.5 21v650h348v-639q0 -157 -110.5 -267t-268.5 -110t-268.5 110t-110.5 267z" />
<glyph horiz-adv-x="1765" d="M-12 0l895 1475l895 -1475h-537l-53 88h-610l-54 -88h-536zM571 1536v279h623v-279h-623zM715 356h334l-166 293z" />
<glyph horiz-adv-x="1765" d="M-12 0l895 1475l895 -1475h-537l-53 88h-610l-54 -88h-536zM549 1845h315v-57q0 -8 6 -13.5t13 -5.5t12.5 5.5t5.5 13.5v57h316q0 -163 -90.5 -236t-243.5 -73t-243.5 73t-90.5 236zM715 356h334l-166 293z" />
<glyph horiz-adv-x="1765" d="M-12 0l895 1475l895 -1475q-50 -18 -75.5 -49.5t-25.5 -63.5q0 -82 101 -82v-254q-184 0 -274.5 63.5t-90.5 182.5q0 60 35.5 115t91.5 88h-299l-53 88h-610l-54 -88h-536zM715 356h334l-166 293z" />
<glyph d="M113 0v1434h960v-439h-469v-192h451v-309h-451v-50h475v-444h-966zM276 1536v279h623v-279h-623z" />
<glyph d="M113 0v1434h960v-439h-469v-192h451v-309h-451v-50h475v-444h-966zM254 1845h315v-57q0 -8 5.5 -13.5t13.5 -5.5q7 0 12.5 5.5t5.5 13.5v57h316q0 -163 -90.5 -236t-243.5 -73t-243.5 73t-90.5 236z" />
<glyph d="M113 0v1434h960v-439h-469v-192h451v-309h-451v-50h475v-444h-966zM420 1720q0 75 55.5 129t132.5 54q74 0 129.5 -54.5t55.5 -128.5q0 -79 -54 -131.5t-131 -52.5q-80 0 -134 52.5t-54 131.5z" />
<glyph d="M113 0v1434h960v-439h-469v-192h451v-309h-451v-50h475v-444h-966zM721 -203q0 60 35.5 115t91.5 88h235q-49 -18 -73.5 -49t-24.5 -64q0 -82 100 -82v-254q-364 0 -364 246z" />
<glyph d="M113 0v1434h960v-439h-469v-192h451v-309h-451v-50h475v-444h-966zM313 1661v297l273 -119l276 119v-297l-274 -125z" />
<glyph horiz-adv-x="1236" d="M47 0v498q30 0 55 2.5t47.5 9.5t40 12.5t35.5 20t29.5 22.5t27 29.5t23.5 32t23.5 39t22 40.5t24.5 46l135 262q41 78 83 137.5t101.5 114.5t128.5 90.5t162 56.5t205 21v-498q-64 0 -115.5 -19.5t-90.5 -58.5t-65 -77.5t-57 -96.5l-141 -270q-43 -82 -81 -138.5 t-95 -112.5t-123 -89t-161 -53.5t-214 -20.5zM797 1536l192 344h428l-340 -344h-280z" />
<glyph horiz-adv-x="1236" d="M47 0v498q30 0 55 2.5t47.5 9.5t40 12.5t35.5 20t29.5 22.5t27 29.5t23.5 32t23.5 39t22 40.5t24.5 46l135 262q41 78 83 137.5t101.5 114.5t128.5 90.5t162 56.5t205 21v-498q-64 0 -115.5 -19.5t-90.5 -58.5t-65 -77.5t-57 -96.5l-141 -270q-43 -82 -81 -138.5 t-95 -112.5t-123 -89t-161 -53.5t-214 -20.5zM657 1536v297l275 125l274 -125v-297l-276 119z" />
<glyph horiz-adv-x="1236" d="M-6 -391l170 395q-74 -4 -117 -4v498q30 0 55 2.5t47.5 9.5t40 12.5t35.5 20t29.5 22.5t27 29.5t23.5 32t23.5 39t22 40.5t24.5 46l135 262q41 78 83 137.5t101.5 114.5t128.5 90.5t162 56.5t205 21v-498q-64 0 -115.5 -19.5t-90.5 -58.5t-65 -77.5t-57 -96.5l-141 -270 q-93 -176 -191 -264l-219 -541h-317z" />
<glyph horiz-adv-x="1236" d="M47 0v498q30 0 55 2.5t47.5 9.5t40 12.5t35.5 20t29.5 22.5t27 29.5t23.5 32t23.5 39t22 40.5t24.5 46l135 262q41 78 83 137.5t101.5 114.5t128.5 90.5t162 56.5t205 21v-498q-64 0 -115.5 -19.5t-90.5 -58.5t-65 -77.5t-57 -96.5l-141 -270q-43 -82 -81 -138.5 t-95 -112.5t-123 -89t-161 -53.5t-214 -20.5zM668 1661v297l272 -119l277 119v-297l-275 -125z" />
<glyph horiz-adv-x="1236" d="M39 -537l59 402h447l-252 -402h-254zM47 0v498q30 0 55 2.5t47.5 9.5t40 12.5t35.5 20t29.5 22.5t27 29.5t23.5 32t23.5 39t22 40.5t24.5 46l135 262q41 78 83 137.5t101.5 114.5t128.5 90.5t162 56.5t205 21v-498q-64 0 -115.5 -19.5t-90.5 -58.5t-65 -77.5t-57 -96.5 l-141 -270q-43 -82 -81 -138.5t-95 -112.5t-123 -89t-161 -53.5t-214 -20.5z" />
</font>
</defs>
</svg>
